<svg xmlns="http://www.w3.org/2000/svg" width="880" height="520" viewBox="0 0 880 520" role="img" aria-label="Progress over time">
<rect width="880" height="520" rx="18" fill="#14162a"/>
<text x="56" y="36" font-family="-apple-system,Segoe UI,Helvetica,Arial,sans-serif" font-size="22" font-weight="700" fill="#fff">Progress over time</text>
<text x="856" y="36" text-anchor="end" font-family="-apple-system,Segoe UI,Helvetica,Arial,sans-serif" font-size="12" fill="#8c8eb0">snapshot every 10 min · latest 2026-10-10 23:34 UTC</text>
<line x1="56" y1="370.0" x2="856" y2="370.0" stroke="#fff" stroke-opacity="0.22"/>
<text x="48" y="374.0" text-anchor="end" font-family="-apple-system,Segoe UI,Helvetica,Arial,sans-serif" font-size="11" fill="#9fa1c4">0%</text>
<line x1="56" y1="308.8" x2="856" y2="308.8" stroke="#fff" stroke-opacity="0.08"/>
<text x="48" y="312.8" text-anchor="end" font-family="-apple-system,Segoe UI,Helvetica,Arial,sans-serif" font-size="11" fill="#9fa1c4">20%</text>
<line x1="56" y1="247.6" x2="856" y2="247.6" stroke="#fff" stroke-opacity="0.08"/>
<text x="48" y="251.6" text-anchor="end" font-family="-apple-system,Segoe UI,Helvetica,Arial,sans-serif" font-size="11" fill="#9fa1c4">40%</text>
<line x1="56" y1="186.4" x2="856" y2="186.4" stroke="#fff" stroke-opacity="0.08"/>
<text x="48" y="190.4" text-anchor="end" font-family="-apple-system,Segoe UI,Helvetica,Arial,sans-serif" font-size="11" fill="#9fa1c4">60%</text>
<line x1="56" y1="125.2" x2="856" y2="125.2" stroke="#fff" stroke-opacity="0.08"/>
<text x="48" y="129.2" text-anchor="end" font-family="-apple-system,Segoe UI,Helvetica,Arial,sans-serif" font-size="11" fill="#9fa1c4">80%</text>
<line x1="56" y1="64.0" x2="856" y2="64.0" stroke="#fff" stroke-opacity="0.22"/>
<text x="48" y="68.0" text-anchor="end" font-family="-apple-system,Segoe UI,Helvetica,Arial,sans-serif" font-size="11" fill="#9fa1c4">100%</text>
<line x1="56.0" y1="64" x2="56.0" y2="370" stroke="#fff" stroke-opacity="0.05"/>
<text x="56.0" y="386" text-anchor="middle" font-family="-apple-system,Segoe UI,Helvetica,Arial,sans-serif" font-size="11" fill="#9fa1c4">10-09 02:19</text>
<line x1="189.3" y1="64" x2="189.3" y2="370" stroke="#fff" stroke-opacity="0.05"/>
<text x="189.3" y="386" text-anchor="middle" font-family="-apple-system,Segoe UI,Helvetica,Arial,sans-serif" font-size="11" fill="#9fa1c4">10-09 08:42</text>
<line x1="322.7" y1="64" x2="322.7" y2="370" stroke="#fff" stroke-opacity="0.05"/>
<text x="322.7" y="386" text-anchor="middle" font-family="-apple-system,Segoe UI,Helvetica,Arial,sans-serif" font-size="11" fill="#9fa1c4">10-09 15:04</text>
<line x1="456.0" y1="64" x2="456.0" y2="370" stroke="#fff" stroke-opacity="0.05"/>
<text x="456.0" y="386" text-anchor="middle" font-family="-apple-system,Segoe UI,Helvetica,Arial,sans-serif" font-size="11" fill="#9fa1c4">10-09 21:27</text>
<line x1="589.3" y1="64" x2="589.3" y2="370" stroke="#fff" stroke-opacity="0.05"/>
<text x="589.3" y="386" text-anchor="middle" font-family="-apple-system,Segoe UI,Helvetica,Arial,sans-serif" font-size="11" fill="#9fa1c4">10-10 03:49</text>
<line x1="722.7" y1="64" x2="722.7" y2="370" stroke="#fff" stroke-opacity="0.05"/>
<text x="722.7" y="386" text-anchor="middle" font-family="-apple-system,Segoe UI,Helvetica,Arial,sans-serif" font-size="11" fill="#9fa1c4">10-10 10:12</text>
<line x1="856.0" y1="64" x2="856.0" y2="370" stroke="#fff" stroke-opacity="0.05"/>
<text x="856.0" y="386" text-anchor="middle" font-family="-apple-system,Segoe UI,Helvetica,Arial,sans-serif" font-size="11" fill="#9fa1c4">10-10 16:34</text>
<polyline points="56.0,346.2 57.0,343.1 58.2,343.1 59.2,334.4 64.5,327.0 73.0,315.4 73.8,315.4 75.4,309.0 80.6,304.8 87.4,304.8 97.0,302.2 102.0,302.2 103.9,302.2 116.6,302.2 122.4,302.2 126.1,302.2 134.3,299.9 172.6,299.9 189.3,248.8 189.9,248.8 190.0,248.8 190.1,248.8 193.6,248.8 197.1,248.8 200.6,248.8 204.1,248.8 207.6,248.8 211.1,248.8 214.6,248.8 218.1,248.8 221.6,248.8 225.1,248.8 228.7,248.8 232.2,248.8 235.7,248.8 239.2,248.8 242.7,248.8 248.3,248.8 254.0,248.8 259.0,248.8 271.0,198.2 271.0,198.2 274.5,195.3 278.0,195.3 281.5,195.3 285.1,195.3 288.5,195.3 292.1,195.3 295.6,158.3 299.1,158.3 302.6,158.3 306.1,158.3 309.6,158.3 313.1,158.3 316.6,158.3 320.1,158.3 323.6,158.3 327.1,158.3 330.6,158.3 334.1,158.3 337.6,158.3 341.1,158.3 344.5,158.3 348.1,158.3 351.6,64.6 355.1,64.6 358.6,64.6 362.1,64.6 365.6,64.6 369.1,64.6 372.6,64.6 376.1,64.6 379.6,64.6 383.1,64.6 386.6,64.6 390.1,64.6 393.6,64.6 397.1,64.6 400.6,64.6 404.1,64.6 407.6,64.6 411.1,64.6 414.6,64.6 418.1,64.6 421.6,64.6 425.1,64.6 428.6,64.6 432.1,64.6 435.6,64.6 439.1,64.6 446.5,64.0 450.0,64.0 453.6,64.0 457.1,64.0 460.6,64.0 464.1,64.0 467.6,64.0 471.1,64.0 474.6,64.0 478.1,64.0 481.6,64.0 485.1,64.0 488.6,64.0 493.3,64.0 496.8,64.0 500.3,64.0 503.8,64.0 507.3,64.0 510.8,64.0 514.3,64.0 517.8,64.0 521.3,64.0 524.8,64.0 528.3,64.0 531.8,64.0 535.3,64.0 538.8,64.0 542.6,64.0 546.1,64.0 549.6,64.0 553.1,64.0 556.6,64.0 560.1,64.0 563.5,64.0 567.0,64.0 570.5,64.0 574.0,64.0 577.5,64.0 581.0,64.0 584.5,64.0 588.0,64.0 591.5,64.0 595.0,64.0 598.5,64.0 602.0,64.0 605.5,64.0 609.0,64.0 612.5,64.0 616.0,64.0 619.5,64.0 623.0,64.0 626.5,64.0 630.0,64.0 633.5,64.0 637.0,64.0 640.5,64.0 644.0,64.0 647.5,64.0 651.0,64.0 654.5,64.0 658.0,64.0 661.5,64.0 665.0,64.0 668.5,64.0 672.0,64.0 675.5,64.0 679.0,64.0 682.5,64.0 685.9,64.0 689.4,64.0 692.9,64.0 696.4,64.0 699.9,64.0 703.4,64.0 706.9,64.0 710.4,64.0 713.9,64.0 717.4,64.0 720.9,64.0 724.4,64.0 727.9,64.0 731.4,64.0 734.9,64.0 738.4,64.0 741.9,64.0 745.4,64.0 748.9,64.0 752.4,64.0 755.9,64.0 759.4,64.0 762.9,64.0 766.4,64.0 769.9,64.0 773.4,64.0 776.9,64.0 780.4,64.0 783.9,64.0 787.4,64.0 790.9,64.0 794.4,64.0 797.9,64.0 801.4,64.0 804.9,64.0 808.4,64.0 811.8,64.0 815.3,64.0 818.8,64.0 821.0,64.0 824.5,64.0 828.0,64.0 831.5,64.0 835.0,64.0 838.5,64.0 842.0,64.0 845.5,64.0 849.0,64.0 852.5,64.0 856.0,64.0" fill="none" stroke="#7c5cff" stroke-width="2.4" stroke-linejoin="round" stroke-linecap="round"/>
<circle cx="856.0" cy="64.0" r="4" fill="#7c5cff"/>
<polyline points="376.1,130.5 379.6,130.5 383.1,130.5 386.6,130.5 390.1,130.5 393.6,130.5 397.1,130.5 400.6,130.5 404.1,130.5 407.6,130.5 411.1,130.5 414.6,130.5 418.1,130.5 421.6,130.5 425.1,130.5 428.6,130.5 432.1,130.5 435.6,130.5 439.1,130.5 446.5,130.5 450.0,130.5 453.6,130.5 457.1,130.5 460.6,130.5 464.1,130.5 467.6,130.5 471.1,130.5 474.6,130.5 478.1,130.5 481.6,130.5 485.1,130.5 488.6,130.5 493.3,130.5 496.8,130.5 500.3,130.5 503.8,130.5 507.3,130.5 510.8,130.5 514.3,130.5 517.8,130.5 521.3,130.5 524.8,130.5 528.3,130.5 531.8,130.5 535.3,130.5 538.8,130.5 542.6,130.5 546.1,130.5 549.6,130.5 553.1,130.5 556.6,130.5 560.1,130.5 563.5,130.5 567.0,130.5 570.5,130.5 574.0,130.5 577.5,130.5 581.0,130.5 584.5,130.5 588.0,130.5 591.5,130.5 595.0,130.5 598.5,130.5 602.0,130.5 605.5,130.5 609.0,130.5 612.5,130.5 616.0,130.5 619.5,130.5 623.0,130.5 626.5,130.5 630.0,130.5 633.5,130.5 637.0,130.5 640.5,130.5 644.0,130.5 647.5,130.5 651.0,130.5 654.5,130.5 658.0,130.5 661.5,130.5 665.0,130.5 668.5,130.5 672.0,130.5 675.5,130.5 679.0,130.5 682.5,130.5 685.9,130.5 689.4,130.5 692.9,130.5 696.4,130.5 699.9,130.5 703.4,130.5 706.9,130.5 710.4,130.5 713.9,130.5 717.4,130.5 720.9,130.5 724.4,130.5 727.9,130.5 731.4,130.5 734.9,130.5 738.4,130.5 741.9,130.5 745.4,130.5 748.9,130.5 752.4,130.5 755.9,130.5 759.4,130.5 762.9,130.5 766.4,130.5 769.9,130.5 773.4,130.5 776.9,130.5 780.4,130.5 783.9,130.5 787.4,130.5 790.9,130.5 794.4,130.5 797.9,130.5 801.4,130.5 804.9,130.5 808.4,130.5 811.8,130.5 815.3,130.5 818.8,130.5 821.0,130.5 824.5,130.5 828.0,130.5 831.5,130.5 835.0,130.5 838.5,130.5 842.0,130.5 845.5,130.5 849.0,130.5 852.5,130.5 856.0,130.5" fill="none" stroke="#8f7cff" stroke-width="2.4" stroke-linejoin="round" stroke-linecap="round"/>
<circle cx="856.0" cy="130.5" r="4" fill="#8f7cff"/>
<polyline points="56.0,64.0 57.0,64.0 58.2,64.0 59.2,64.0 64.5,64.0 73.0,64.0 73.8,64.0 75.4,64.0 80.6,64.0 87.4,64.0 97.0,64.0 102.0,64.0 103.9,64.0 116.6,64.0 122.4,64.0 126.1,64.0 134.3,64.0 172.6,64.0 189.3,64.0 189.9,64.0 190.0,64.0 190.1,64.0 193.6,64.0 197.1,64.0 200.6,64.0 204.1,64.0 207.6,64.0 211.1,64.0 214.6,64.0 218.1,64.0 221.6,64.0 225.1,64.0 228.7,64.0 232.2,64.0 235.7,64.0 239.2,64.0 242.7,64.0 248.3,64.0 254.0,64.0 259.0,64.0 271.0,64.0 271.0,64.0 274.5,64.0 278.0,64.0 281.5,64.0 285.1,64.0 288.5,64.0 292.1,64.0 295.6,64.0 299.1,64.0 302.6,64.0 306.1,64.0 309.6,64.0 313.1,64.0 316.6,64.0 320.1,64.0 323.6,64.0 327.1,64.0 330.6,64.0 334.1,64.0 337.6,64.0 341.1,64.0 344.5,64.0 348.1,64.0 351.6,64.0 355.1,64.0 358.6,64.0 362.1,64.0 365.6,64.0 369.1,64.0 372.6,64.0 376.1,64.0 379.6,64.0 383.1,64.0 386.6,64.0 390.1,64.0 393.6,64.0 397.1,64.0 400.6,64.0 404.1,64.0 407.6,64.0 411.1,64.0 414.6,64.0 418.1,64.0 421.6,64.0 425.1,64.0 428.6,64.0 432.1,64.0 435.6,64.0 439.1,64.0 446.5,64.0 450.0,64.0 453.6,64.0 457.1,64.0 460.6,64.0 464.1,64.0 467.6,64.0 471.1,64.0 474.6,64.0 478.1,64.0 481.6,64.0 485.1,64.0 488.6,64.0 493.3,64.0 496.8,64.0 500.3,64.0 503.8,64.0 507.3,64.0 510.8,64.0 514.3,64.0 517.8,64.0 521.3,64.0 524.8,64.0 528.3,64.0 531.8,64.0 535.3,64.0 538.8,64.0 542.6,64.0 546.1,64.0 549.6,64.0 553.1,64.0 556.6,64.0 560.1,64.0 563.5,64.0 567.0,64.0 570.5,64.0 574.0,64.0 577.5,64.0 581.0,64.0 584.5,64.0 588.0,64.0 591.5,64.0 595.0,64.0 598.5,64.0 602.0,64.0 605.5,64.0 609.0,64.0 612.5,64.0 616.0,64.0 619.5,64.0 623.0,64.0 626.5,64.0 630.0,64.0 633.5,64.0 637.0,64.0 640.5,64.0 644.0,64.0 647.5,64.0 651.0,64.0 654.5,64.0 658.0,64.0 661.5,64.0 665.0,64.0 668.5,64.0 672.0,64.0 675.5,64.0 679.0,64.0 682.5,64.0 685.9,64.0 689.4,64.0 692.9,64.0 696.4,64.0 699.9,64.0 703.4,64.0 706.9,64.0 710.4,64.0 713.9,64.0 717.4,64.0 720.9,64.0 724.4,64.0 727.9,64.0 731.4,64.0 734.9,64.0 738.4,64.0 741.9,64.0 745.4,64.0 748.9,64.0 752.4,64.0 755.9,64.0 759.4,64.0 762.9,64.0 766.4,64.0 769.9,64.0 773.4,64.0 776.9,64.0 780.4,64.0 783.9,64.0 787.4,64.0 790.9,64.0 794.4,64.0 797.9,64.0 801.4,64.0 804.9,64.0 808.4,64.0 811.8,64.0 815.3,64.0 818.8,64.0 821.0,64.0 824.5,64.0 828.0,64.0 831.5,64.0 835.0,64.0 838.5,64.0 842.0,64.0 845.5,64.0 849.0,64.0 852.5,64.0 856.0,64.0" fill="none" stroke="#2fb67c" stroke-width="2.4" stroke-linejoin="round" stroke-linecap="round"/>
<circle cx="856.0" cy="64.0" r="4" fill="#2fb67c"/>
<polyline points="56.0,320.3 57.0,303.7 58.2,287.1 59.2,265.0 64.5,231.9 73.0,193.3 73.8,193.3 75.4,176.7 80.6,160.1 87.4,138.0 97.0,138.0 102.0,138.0 103.9,138.0 116.6,138.0 122.4,138.0 126.1,138.0 134.3,160.1 172.6,160.1 189.3,160.1 189.9,160.1 190.0,160.1 190.1,160.1 193.6,160.1 197.1,160.1 200.6,160.1 204.1,160.1 207.6,160.1 211.1,160.1 214.6,160.1 218.1,160.1 221.6,160.1 225.1,160.1 228.7,160.1 232.2,160.1 235.7,160.1 239.2,160.1 242.7,160.1 248.3,160.1 254.0,160.1 259.0,160.1 271.0,160.1 271.0,160.1 274.5,160.1 278.0,160.1 281.5,160.1 285.1,160.1 288.5,160.1 292.1,160.1 295.6,160.1 299.1,160.1 302.6,160.1 306.1,160.1 309.6,160.1 313.1,160.1 316.6,160.1 320.1,160.1 323.6,160.1 327.1,160.1 330.6,160.1 334.1,160.1 337.6,160.1 341.1,160.1 344.5,160.1 348.1,160.1 351.6,160.1 355.1,160.1 358.6,160.1 362.1,160.1 365.6,160.1 369.1,160.1 372.6,160.1 376.1,160.1 379.6,160.1 383.1,160.1 386.6,160.1 390.1,160.1 393.6,160.1 397.1,160.1 400.6,160.1 404.1,160.1 407.6,160.1 411.1,160.1 414.6,160.1 418.1,160.1 421.6,160.1 425.1,160.1 428.6,160.1 432.1,160.1 435.6,160.1 439.1,160.1 446.5,160.1 450.0,160.1 453.6,160.1 457.1,160.1 460.6,160.1 464.1,160.1 467.6,160.1 471.1,160.1 474.6,160.1 478.1,160.1 481.6,160.1 485.1,160.1 488.6,160.1 493.3,160.1 496.8,160.1 500.3,160.1 503.8,160.1 507.3,160.1 510.8,160.1 514.3,160.1 517.8,160.1 521.3,160.1 524.8,160.1 528.3,160.1 531.8,160.1 535.3,160.1 538.8,160.1 542.6,160.1 546.1,160.1 549.6,160.1 553.1,160.1 556.6,160.1 560.1,160.1 563.5,160.1 567.0,160.1 570.5,160.1 574.0,160.1 577.5,160.1 581.0,160.1 584.5,160.1 588.0,160.1 591.5,160.1 595.0,160.1 598.5,160.1 602.0,160.1 605.5,160.1 609.0,160.1 612.5,160.1 616.0,160.1 619.5,160.1 623.0,160.1 626.5,160.1 630.0,160.1 633.5,160.1 637.0,160.1 640.5,160.1 644.0,160.1 647.5,160.1 651.0,160.1 654.5,160.1 658.0,160.1 661.5,160.1 665.0,160.1 668.5,160.1 672.0,160.1 675.5,160.1 679.0,160.1 682.5,160.1 685.9,160.1 689.4,160.1 692.9,160.1 696.4,160.1 699.9,160.1 703.4,160.1 706.9,160.1 710.4,160.1 713.9,160.1 717.4,160.1 720.9,160.1 724.4,160.1 727.9,160.1 731.4,160.1 734.9,160.1 738.4,160.1 741.9,160.1 745.4,160.1 748.9,160.1 752.4,160.1 755.9,160.1 759.4,160.1 762.9,160.1 766.4,160.1 769.9,160.1 773.4,160.1 776.9,160.1 780.4,160.1 783.9,160.1 787.4,160.1 790.9,160.1 794.4,160.1 797.9,160.1 801.4,160.1 804.9,160.1 808.4,160.1 811.8,160.1 815.3,160.1 818.8,160.1 821.0,160.1 824.5,160.1 828.0,160.1 831.5,160.1 835.0,160.1 838.5,160.1 842.0,160.1 845.5,160.1 849.0,160.1 852.5,160.1 856.0,160.1" fill="none" stroke="#2f9bff" stroke-width="2.4" stroke-linejoin="round" stroke-linecap="round"/>
<circle cx="856.0" cy="160.1" r="4" fill="#2f9bff"/>
<polyline points="87.4,69.8 97.0,76.2 102.0,72.2 103.9,72.2 116.6,67.2 122.4,67.2 126.1,67.2 134.3,66.6 172.6,66.1 189.3,66.1 189.9,66.1 190.0,66.1 190.1,66.1 193.6,66.1 197.1,66.1 200.6,66.1 204.1,66.1 207.6,66.1 211.1,66.1 214.6,66.1 218.1,66.1 221.6,66.1 225.1,66.1 228.7,66.1 232.2,66.1 235.7,66.1 239.2,66.1 242.7,66.1 248.3,66.1 254.0,66.1 259.0,66.1 271.0,66.1 271.0,66.1 274.5,66.1 278.0,66.1 281.5,66.1 285.1,66.1 288.5,66.1 292.1,66.1 295.6,66.1 299.1,66.1 302.6,66.1 306.1,66.1 309.6,66.1 313.1,66.1 316.6,66.1 320.1,66.1 323.6,66.1 327.1,66.1 330.6,66.1 334.1,66.1 337.6,66.1 341.1,66.1 344.5,66.1 348.1,66.1 351.6,66.1 355.1,66.1 358.6,66.1 362.1,66.1 365.6,66.1 369.1,66.1 372.6,66.1 376.1,66.1 379.6,66.1 383.1,66.1 386.6,66.1 390.1,66.1 393.6,66.1 397.1,66.1 400.6,66.1 404.1,66.1 407.6,66.1 411.1,66.1 414.6,66.1 418.1,66.1 421.6,66.1 425.1,66.1 428.6,66.1 432.1,66.1 435.6,66.1 439.1,66.1 446.5,66.1 450.0,66.1 453.6,66.1 457.1,66.1 460.6,66.1 464.1,66.1 467.6,66.1 471.1,66.1 474.6,66.1 478.1,66.1 481.6,66.1 485.1,66.1 488.6,66.1 493.3,66.1 496.8,66.1 500.3,66.1 503.8,66.1 507.3,66.1 510.8,66.1 514.3,66.1 517.8,66.1 521.3,66.1 524.8,66.1 528.3,66.1 531.8,66.1 535.3,64.0 538.8,64.0 542.6,64.0 546.1,64.0 549.6,64.0 553.1,64.0 556.6,64.0 560.1,64.0 563.5,64.0 567.0,64.0 570.5,64.0 574.0,64.0 577.5,64.0 581.0,64.0 584.5,64.0 588.0,64.0 591.5,64.0 595.0,64.0 598.5,64.0 602.0,64.0 605.5,64.0 609.0,64.0 612.5,64.0 616.0,64.0 619.5,64.0 623.0,64.0 626.5,64.0 630.0,64.0 633.5,64.0 637.0,64.0 640.5,64.0 644.0,64.0 647.5,64.0 651.0,64.0 654.5,64.0 658.0,64.0 661.5,64.0 665.0,64.0 668.5,64.0 672.0,64.0 675.5,64.0 679.0,64.0 682.5,64.0 685.9,64.0 689.4,64.0 692.9,64.0 696.4,64.0 699.9,64.0 703.4,64.0 706.9,64.0 710.4,64.0 713.9,64.0 717.4,64.0 720.9,64.0 724.4,64.0 727.9,64.0 731.4,64.0 734.9,64.0 738.4,64.0 741.9,64.0 745.4,64.0 748.9,64.0 752.4,64.0 755.9,64.0 759.4,64.0 762.9,64.0 766.4,64.0 769.9,64.0 773.4,64.0 776.9,64.0 780.4,64.0 783.9,64.0 787.4,64.0 790.9,64.0 794.4,64.0 797.9,64.0 801.4,64.0 804.9,64.0 808.4,64.0 811.8,64.0 815.3,64.0 818.8,64.0 821.0,64.0 824.5,64.0 828.0,64.0 831.5,64.0 835.0,64.0 838.5,64.0 842.0,64.0 845.5,64.0 849.0,64.0 852.5,64.0 856.0,64.0" fill="none" stroke="#22c1c3" stroke-width="2.4" stroke-linejoin="round" stroke-linecap="round"/>
<circle cx="856.0" cy="64.0" r="4" fill="#22c1c3"/>
<polyline points="59.2,94.6 64.5,94.6 73.0,94.6 73.8,94.6 75.4,94.6 80.6,94.6 87.4,94.6 97.0,94.6 102.0,94.6 103.9,94.6 116.6,94.6 122.4,94.6 126.1,94.6 134.3,94.6 172.6,94.6 189.3,94.6 189.9,94.6 190.0,94.6 190.1,94.6 193.6,94.6 197.1,94.6 200.6,94.6 204.1,94.6 207.6,94.6 211.1,94.6 214.6,94.6 218.1,94.6 221.6,94.6 225.1,94.6 228.7,94.6 232.2,94.6 235.7,94.6 239.2,94.6 242.7,94.6 248.3,94.6 254.0,94.6 259.0,94.6 271.0,94.6 271.0,94.6 274.5,94.6 278.0,94.6 281.5,94.6 285.1,94.6 288.5,94.6 292.1,94.6 295.6,94.6 299.1,94.6 302.6,94.6 306.1,94.6 309.6,94.6 313.1,94.6 316.6,94.6 320.1,94.6 323.6,94.6 327.1,94.6 330.6,94.6 334.1,94.6 337.6,94.6 341.1,94.6 344.5,94.6 348.1,94.6 351.6,94.6 355.1,94.6 358.6,94.6 362.1,94.6 365.6,94.6 369.1,94.6 372.6,94.6 376.1,94.6 379.6,94.6 383.1,94.6 386.6,94.6 390.1,94.6 393.6,94.6 397.1,94.6 400.6,94.6 404.1,94.6 407.6,94.6 411.1,94.6 414.6,94.6 418.1,94.6 421.6,94.6 425.1,94.6 428.6,94.6 432.1,94.6 435.6,94.6 439.1,94.6 446.5,94.6 450.0,94.6 453.6,94.6 457.1,94.6 460.6,94.6 464.1,94.6 467.6,94.6 471.1,94.6 474.6,94.6 478.1,94.6 481.6,94.6 485.1,94.6 488.6,94.6 493.3,94.6 496.8,94.6 500.3,94.6 503.8,94.6 507.3,94.6 510.8,94.6 514.3,94.6 517.8,94.6 521.3,94.6 524.8,94.6 528.3,94.6 531.8,94.6 535.3,94.6 538.8,94.6 542.6,94.6 546.1,94.6 549.6,94.6 553.1,94.6 556.6,94.6 560.1,94.6 563.5,94.6 567.0,94.6 570.5,94.6 574.0,94.6 577.5,94.6 581.0,94.6 584.5,94.6 588.0,94.6 591.5,94.6 595.0,94.6 598.5,94.6 602.0,94.6 605.5,94.6 609.0,94.6 612.5,94.6 616.0,94.6 619.5,94.6 623.0,94.6 626.5,94.6 630.0,94.6 633.5,94.6 637.0,94.6 640.5,94.6 644.0,94.6 647.5,94.6 651.0,94.6 654.5,94.6 658.0,94.6 661.5,94.6 665.0,94.6 668.5,94.6 672.0,94.6 675.5,94.6 679.0,94.6 682.5,94.6 685.9,94.6 689.4,94.6 692.9,94.6 696.4,94.6 699.9,94.6 703.4,94.6 706.9,94.6 710.4,94.6 713.9,94.6 717.4,94.6 720.9,94.6 724.4,94.6 727.9,94.6 731.4,94.6 734.9,94.6 738.4,94.6 741.9,94.6 745.4,94.6 748.9,94.6 752.4,94.6 755.9,94.6 759.4,94.6 762.9,94.6 766.4,94.6 769.9,94.6 773.4,94.6 776.9,94.6 780.4,94.6 783.9,94.6 787.4,94.6 790.9,94.6 794.4,94.6 797.9,94.6 801.4,94.6 804.9,94.6 808.4,94.6 811.8,94.6 815.3,94.6 818.8,94.6 821.0,94.6 824.5,94.6 828.0,94.6 831.5,94.6 835.0,94.6 838.5,94.6 842.0,94.6 845.5,94.6 849.0,94.6 852.5,94.6 856.0,94.6" fill="none" stroke="#f2a81d" stroke-width="2.4" stroke-linejoin="round" stroke-linecap="round"/>
<circle cx="856.0" cy="94.6" r="4" fill="#f2a81d"/>
<polyline points="56.0,238.8 57.0,238.8 58.2,238.8 59.2,238.8 64.5,195.2 73.0,151.4 73.8,151.4 75.4,151.4 80.6,151.4 87.4,107.7 97.0,102.2 102.0,102.2 103.9,102.2 116.6,102.2 122.4,64.0 126.1,64.0 134.3,64.0 172.6,64.0 189.3,64.0 189.9,64.0 190.0,64.0 190.1,64.0 193.6,64.0 197.1,64.0 200.6,64.0 204.1,64.0 207.6,64.0 211.1,64.0 214.6,64.0 218.1,64.0 221.6,64.0 225.1,64.0 228.7,64.0 232.2,64.0 235.7,64.0 239.2,64.0 242.7,64.0 248.3,64.0 254.0,64.0 259.0,64.0 271.0,64.0 271.0,64.0 274.5,64.0 278.0,64.0 281.5,64.0 285.1,64.0 288.5,64.0 292.1,64.0 295.6,64.0 299.1,64.0 302.6,64.0 306.1,64.0 309.6,64.0 313.1,64.0 316.6,64.0 320.1,64.0 323.6,64.0 327.1,64.0 330.6,64.0 334.1,64.0 337.6,64.0 341.1,64.0 344.5,64.0 348.1,64.0 351.6,64.0 355.1,64.0 358.6,64.0 362.1,64.0 365.6,64.0 369.1,64.0 372.6,64.0 376.1,64.0 379.6,64.0 383.1,64.0 386.6,64.0 390.1,64.0 393.6,64.0 397.1,64.0 400.6,64.0 404.1,64.0 407.6,64.0 411.1,64.0 414.6,64.0 418.1,64.0 421.6,64.0 425.1,64.0 428.6,64.0 432.1,64.0 435.6,64.0 439.1,64.0 446.5,64.0 450.0,64.0 453.6,64.0 457.1,64.0 460.6,64.0 464.1,64.0 467.6,64.0 471.1,64.0 474.6,64.0 478.1,64.0 481.6,64.0 485.1,64.0 488.6,64.0 493.3,64.0 496.8,64.0 500.3,64.0 503.8,64.0 507.3,64.0 510.8,64.0 514.3,64.0 517.8,64.0 521.3,64.0 524.8,64.0 528.3,64.0 531.8,64.0 535.3,64.0 538.8,64.0 542.6,64.0 546.1,64.0 549.6,64.0 553.1,64.0 556.6,64.0 560.1,64.0 563.5,64.0 567.0,64.0 570.5,64.0 574.0,64.0 577.5,64.0 581.0,64.0 584.5,64.0 588.0,64.0 591.5,64.0 595.0,64.0 598.5,64.0 602.0,64.0 605.5,64.0 609.0,64.0 612.5,64.0 616.0,64.0 619.5,64.0 623.0,64.0 626.5,64.0 630.0,64.0 633.5,64.0 637.0,64.0 640.5,64.0 644.0,64.0 647.5,64.0 651.0,64.0 654.5,64.0 658.0,64.0 661.5,64.0 665.0,64.0 668.5,64.0 672.0,64.0 675.5,64.0 679.0,64.0 682.5,64.0 685.9,64.0 689.4,64.0 692.9,64.0 696.4,64.0 699.9,64.0 703.4,64.0 706.9,64.0 710.4,64.0 713.9,64.0 717.4,64.0 720.9,64.0 724.4,64.0 727.9,64.0 731.4,64.0 734.9,64.0 738.4,64.0 741.9,64.0 745.4,64.0 748.9,64.0 752.4,64.0 755.9,64.0 759.4,64.0 762.9,64.0 766.4,64.0 769.9,64.0 773.4,64.0 776.9,64.0 780.4,64.0 783.9,64.0 787.4,64.0 790.9,64.0 794.4,64.0 797.9,64.0 801.4,64.0 804.9,64.0 808.4,64.0 811.8,64.0 815.3,64.0 818.8,64.0 821.0,64.0 824.5,64.0 828.0,64.0 831.5,64.0 835.0,64.0 838.5,64.0 842.0,64.0 845.5,64.0 849.0,64.0 852.5,64.0 856.0,64.0" fill="none" stroke="#ef5da8" stroke-width="2.4" stroke-linejoin="round" stroke-linecap="round"/>
<circle cx="856.0" cy="64.0" r="4" fill="#ef5da8"/>
<polyline points="362.1,125.2 365.6,125.2 369.1,125.2 372.6,125.2 376.1,125.2 379.6,125.2 383.1,125.2 386.6,125.2 390.1,125.2 393.6,125.2 397.1,125.2 400.6,125.2 404.1,125.2 407.6,125.2 411.1,125.2 414.6,125.2 418.1,125.2 421.6,125.2 425.1,125.2 428.6,125.2 432.1,125.2 435.6,125.2 439.1,125.2 446.5,125.2 450.0,125.2 453.6,125.2 457.1,125.2 460.6,125.2 464.1,125.2 467.6,125.2 471.1,125.2 474.6,125.2 478.1,125.2 481.6,125.2 485.1,125.2 488.6,125.2 493.3,125.2 496.8,125.2 500.3,125.2 503.8,125.2 507.3,125.2 510.8,125.2 514.3,125.2 517.8,125.2 521.3,125.2 524.8,125.2 528.3,125.2 531.8,125.2 535.3,64.0 538.8,64.0 542.6,64.0 546.1,64.0 549.6,64.0 553.1,64.0 556.6,64.0 560.1,64.0 563.5,64.0 567.0,64.0 570.5,64.0 574.0,64.0 577.5,64.0 581.0,64.0 584.5,64.0 588.0,64.0 591.5,64.0 595.0,64.0 598.5,64.0 602.0,64.0 605.5,64.0 609.0,64.0 612.5,64.0 616.0,64.0 619.5,64.0 623.0,64.0 626.5,64.0 630.0,64.0 633.5,64.0 637.0,64.0 640.5,64.0 644.0,64.0 647.5,64.0 651.0,64.0 654.5,64.0 658.0,64.0 661.5,64.0 665.0,64.0 668.5,64.0 672.0,64.0 675.5,64.0 679.0,64.0 682.5,64.0 685.9,64.0 689.4,64.0 692.9,64.0 696.4,64.0 699.9,64.0 703.4,64.0 706.9,64.0 710.4,64.0 713.9,64.0 717.4,64.0 720.9,64.0 724.4,64.0 727.9,64.0 731.4,64.0 734.9,64.0 738.4,64.0 741.9,64.0 745.4,64.0 748.9,64.0 752.4,64.0 755.9,64.0 759.4,64.0 762.9,64.0 766.4,64.0 769.9,64.0 773.4,64.0 776.9,64.0 780.4,64.0 783.9,64.0 787.4,64.0 790.9,64.0 794.4,64.0 797.9,64.0 801.4,64.0 804.9,64.0 808.4,64.0 811.8,64.0 815.3,64.0 818.8,64.0 821.0,64.0 824.5,64.0 828.0,64.0 831.5,64.0 835.0,64.0 838.5,64.0 842.0,64.0 845.5,64.0 849.0,64.0 852.5,64.0 856.0,64.0" fill="none" stroke="#ff7a45" stroke-width="2.4" stroke-linejoin="round" stroke-linecap="round"/>
<circle cx="856.0" cy="64.0" r="4" fill="#ff7a45"/>
<polyline points="362.1,284.5 365.6,284.5 369.1,284.5 372.6,284.5 376.1,284.5 379.6,284.5 383.1,284.5 386.6,284.5 390.1,284.5 393.6,284.5 397.1,284.5 400.6,284.5 404.1,284.5 407.6,284.5 411.1,284.5 414.6,284.5 418.1,284.5 421.6,284.5 425.1,284.5 428.6,284.5 432.1,284.5 435.6,284.5 439.1,284.5 446.5,284.5 450.0,284.5 453.6,284.5 457.1,284.5 460.6,284.5 464.1,284.5 467.6,284.5 471.1,284.5 474.6,284.5 478.1,284.5 481.6,284.5 485.1,284.5 488.6,284.5 493.3,284.5 496.8,284.5 500.3,284.5 503.8,284.5 507.3,284.5 510.8,284.5 514.3,284.5 517.8,284.5 521.3,284.5 524.8,284.5 528.3,284.5 531.8,284.5 535.3,284.5 538.8,284.5 542.6,284.5 546.1,284.5 549.6,284.5 553.1,284.5 556.6,284.5 560.1,284.5 563.5,284.5 567.0,284.5 570.5,284.5 574.0,253.0 577.5,253.0 581.0,253.0 584.5,253.0 588.0,253.0 591.5,253.0 595.0,253.0 598.5,253.0 602.0,253.0 605.5,253.0 609.0,253.0 612.5,253.0 616.0,253.0 619.5,253.0 623.0,253.0 626.5,253.0 630.0,253.0 633.5,253.0 637.0,253.0 640.5,253.0 644.0,253.0 647.5,253.0 651.0,253.0 654.5,253.0 658.0,253.0 661.5,253.0 665.0,253.0 668.5,253.0 672.0,253.0 675.5,253.0 679.0,253.0 682.5,253.0 685.9,253.0 689.4,253.0 692.9,253.0 696.4,253.0 699.9,253.0 703.4,253.0 706.9,253.0 710.4,253.0 713.9,253.0 717.4,253.0 720.9,253.0 724.4,253.0 727.9,253.0 731.4,253.0 734.9,253.0 738.4,253.0 741.9,253.0 745.4,253.0 748.9,253.0 752.4,253.0 755.9,253.0 759.4,253.0 762.9,253.0 766.4,253.0 769.9,253.0 773.4,253.0 776.9,253.0 780.4,253.0 783.9,253.0 787.4,253.0 790.9,253.0 794.4,253.0 797.9,253.0 801.4,253.0 804.9,253.0 808.4,253.0 811.8,253.0 815.3,253.0 818.8,253.0 821.0,253.0 824.5,253.0 828.0,253.0 831.5,253.0 835.0,253.0 838.5,253.0 842.0,253.0 845.5,165.3 849.0,165.3 852.5,165.3 856.0,165.3" fill="none" stroke="#ff9f43" stroke-width="2.4" stroke-linejoin="round" stroke-linecap="round"/>
<circle cx="856.0" cy="165.3" r="4" fill="#ff9f43"/>
<polyline points="362.1,64.0 365.6,64.0 369.1,64.0 372.6,64.0 376.1,64.0 379.6,64.0 383.1,64.0 386.6,64.0 390.1,64.0 393.6,64.0 397.1,64.0 400.6,64.0 404.1,64.0 407.6,64.0 411.1,64.0 414.6,64.0 418.1,64.0 421.6,64.0 425.1,64.0 428.6,64.0 432.1,64.0 435.6,64.0 439.1,64.0 446.5,64.0 450.0,64.0 453.6,64.0 457.1,64.0 460.6,64.0 464.1,64.0 467.6,64.0 471.1,64.0 474.6,64.0 478.1,64.0 481.6,64.0 485.1,64.0 488.6,64.0 493.3,64.0 496.8,64.0 500.3,64.0 503.8,64.0 507.3,64.0 510.8,64.0 514.3,64.0 517.8,64.0 521.3,64.0 524.8,64.0 528.3,64.0 531.8,64.0 535.3,64.0 538.8,64.0 542.6,64.0 546.1,64.0 549.6,64.0 553.1,64.0 556.6,64.0 560.1,64.0 563.5,64.0 567.0,64.0 570.5,64.0 574.0,64.0 577.5,64.0 581.0,64.0 584.5,64.0 588.0,64.0 591.5,64.0 595.0,64.0 598.5,64.0 602.0,64.0 605.5,64.0 609.0,64.0 612.5,64.0 616.0,64.0 619.5,64.0 623.0,64.0 626.5,64.0 630.0,64.0 633.5,64.0 637.0,64.0 640.5,64.0 644.0,64.0 647.5,64.0 651.0,64.0 654.5,64.0 658.0,64.0 661.5,64.0 665.0,64.0 668.5,64.0 672.0,64.0 675.5,64.0 679.0,64.0 682.5,64.0 685.9,64.0 689.4,64.0 692.9,64.0 696.4,64.0 699.9,64.0 703.4,64.0 706.9,64.0 710.4,64.0 713.9,64.0 717.4,64.0 720.9,64.0 724.4,64.0 727.9,64.0 731.4,64.0 734.9,64.0 738.4,64.0 741.9,64.0 745.4,64.0 748.9,64.0 752.4,64.0 755.9,64.0 759.4,64.0 762.9,64.0 766.4,64.0 769.9,64.0 773.4,64.0 776.9,64.0 780.4,64.0 783.9,64.0 787.4,64.0 790.9,64.0 794.4,64.0 797.9,64.0 801.4,64.0 804.9,64.0 808.4,64.0 811.8,64.0 815.3,64.0 818.8,64.0 821.0,64.0 824.5,64.0 828.0,64.0 831.5,64.0 835.0,64.0 838.5,64.0 842.0,64.0 845.5,64.0 849.0,64.0 852.5,64.0 856.0,64.0" fill="none" stroke="#e86fa6" stroke-width="2.4" stroke-linejoin="round" stroke-linecap="round"/>
<circle cx="856.0" cy="64.0" r="4" fill="#e86fa6"/>
<polyline points="362.1,180.6 365.6,180.6 369.1,180.6 372.6,180.6 376.1,180.6 379.6,180.6 383.1,180.6 386.6,180.6 390.1,180.6 393.6,180.6 397.1,180.6 400.6,180.6 404.1,180.6 407.6,180.6 411.1,180.6 414.6,180.6 418.1,180.6 421.6,180.6 425.1,180.6 428.6,180.6 432.1,180.6 435.6,180.6 439.1,180.6 446.5,180.6 450.0,180.6 453.6,180.6 457.1,180.6 460.6,180.6 464.1,180.6 467.6,180.6 471.1,180.6 474.6,180.6 478.1,180.6 481.6,180.6 485.1,180.6 488.6,180.6 493.3,180.6 496.8,180.6 500.3,180.6 503.8,180.6 507.3,180.6 510.8,180.6 514.3,180.6 517.8,180.6 521.3,180.6 524.8,180.6 528.3,180.6 531.8,180.6 535.3,180.6 538.8,180.6 542.6,180.6 546.1,180.6 549.6,180.6 553.1,180.6 556.6,180.6 560.1,180.6 563.5,180.6 567.0,180.6 570.5,180.6 574.0,180.6 577.5,180.6 581.0,180.6 584.5,180.6 588.0,180.6 591.5,164.6 595.0,164.6 598.5,164.6 602.0,164.6 605.5,164.6 609.0,164.6 612.5,164.6 616.0,164.6 619.5,164.6 623.0,164.6 626.5,164.6 630.0,164.6 633.5,164.6 637.0,164.6 640.5,164.6 644.0,164.6 647.5,164.6 651.0,164.6 654.5,164.6 658.0,164.6 661.5,164.6 665.0,164.6 668.5,164.6 672.0,164.6 675.5,164.6 679.0,164.6 682.5,164.6 685.9,164.6 689.4,164.6 692.9,164.6 696.4,164.6 699.9,164.6 703.4,164.6 706.9,164.6 710.4,164.6 713.9,164.6 717.4,164.6 720.9,164.6 724.4,164.6 727.9,164.6 731.4,164.6 734.9,164.6 738.4,164.6 741.9,164.6 745.4,164.6 748.9,164.6 752.4,164.6 755.9,164.6 759.4,164.6 762.9,164.6 766.4,164.6 769.9,164.6 773.4,164.6 776.9,164.6 780.4,164.6 783.9,164.6 787.4,164.6 790.9,164.6 794.4,164.6 797.9,164.6 801.4,164.6 804.9,164.6 808.4,164.6 811.8,164.6 815.3,164.6 818.8,164.6 821.0,164.6 824.5,164.6 828.0,164.6 831.5,164.6 835.0,164.6 838.5,164.6 842.0,164.6 845.5,151.4 849.0,151.4 852.5,151.4 856.0,151.4" fill="none" stroke="#5fd0a5" stroke-width="2.4" stroke-linejoin="round" stroke-linecap="round"/>
<circle cx="856.0" cy="151.4" r="4" fill="#5fd0a5"/>
<polyline points="362.1,70.2 365.6,70.2 369.1,70.2 372.6,70.2 376.1,70.2 379.6,70.2 383.1,70.2 386.6,70.2 390.1,70.2 393.6,70.2 397.1,70.2 400.6,70.2 404.1,70.2 407.6,70.2 411.1,70.2 414.6,70.2 418.1,70.2 421.6,70.2 425.1,70.2 428.6,70.2 432.1,70.2 435.6,70.2 439.1,70.2 446.5,70.2 450.0,70.2 453.6,70.2 457.1,70.2 460.6,70.2 464.1,70.2 467.6,70.2 471.1,70.2 474.6,70.2 478.1,70.2 481.6,70.2 485.1,70.2 488.6,70.2 493.3,70.2 496.8,70.2 500.3,70.2 503.8,70.2 507.3,70.2 510.8,70.2 514.3,70.2 517.8,70.2 521.3,70.2 524.8,70.2 528.3,70.2 531.8,70.2 535.3,70.2 538.8,70.2 542.6,70.2 546.1,70.2 549.6,70.2 553.1,70.2 556.6,70.2 560.1,70.2 563.5,70.2 567.0,70.2 570.5,70.2 574.0,70.2 577.5,70.2 581.0,70.2 584.5,70.2 588.0,70.2 591.5,70.2 595.0,70.2 598.5,70.2 602.0,70.2 605.5,70.2 609.0,70.2 612.5,70.2 616.0,70.2 619.5,70.2 623.0,70.2 626.5,70.2 630.0,70.2 633.5,70.2 637.0,70.2 640.5,70.2 644.0,70.2 647.5,70.2 651.0,70.2 654.5,70.2 658.0,70.2 661.5,70.2 665.0,70.2 668.5,70.2 672.0,70.2 675.5,70.2 679.0,70.2 682.5,70.2 685.9,70.2 689.4,70.2 692.9,70.2 696.4,70.2 699.9,70.2 703.4,70.2 706.9,70.2 710.4,70.2 713.9,70.2 717.4,70.2 720.9,70.2 724.4,70.2 727.9,70.2 731.4,70.2 734.9,70.2 738.4,70.2 741.9,70.2 745.4,70.2 748.9,70.2 752.4,70.2 755.9,70.2 759.4,70.2 762.9,70.2 766.4,70.2 769.9,70.2 773.4,70.2 776.9,70.2 780.4,70.2 783.9,70.2 787.4,70.2 790.9,70.2 794.4,70.2 797.9,70.2 801.4,70.2 804.9,70.2 808.4,70.2 811.8,70.2 815.3,70.2 818.8,70.2 821.0,70.2 824.5,70.2 828.0,70.2 831.5,70.2 835.0,70.2 838.5,70.2 842.0,70.2 845.5,70.2 849.0,70.2 852.5,70.2 856.0,70.2" fill="none" stroke="#4aa8ff" stroke-width="2.4" stroke-linejoin="round" stroke-linecap="round"/>
<circle cx="856.0" cy="70.2" r="4" fill="#4aa8ff"/>
<polyline points="362.1,194.3 365.6,194.3 369.1,194.3 372.6,194.3 376.1,194.3 379.6,194.3 383.1,194.3 386.6,194.3 390.1,194.3 393.6,194.3 397.1,194.3 400.6,194.3 404.1,194.3 407.6,194.3 411.1,194.3 414.6,194.3 418.1,194.3 421.6,194.3 425.1,194.3 428.6,194.3 432.1,194.3 435.6,194.3 439.1,194.3 446.5,194.3 450.0,194.3 453.6,194.3 457.1,194.3 460.6,194.3 464.1,194.3 467.6,194.3 471.1,194.3 474.6,194.3 478.1,194.3 481.6,194.3 485.1,194.3 488.6,194.3 493.3,194.3 496.8,194.3 500.3,194.3 503.8,194.3 507.3,194.3 510.8,194.3 514.3,194.3 517.8,194.3 521.3,194.3 524.8,194.3 528.3,194.3 531.8,194.3 535.3,194.3 538.8,194.3 542.6,194.3 546.1,194.3 549.6,194.3 553.1,194.3 556.6,194.3 560.1,194.3 563.5,194.3 567.0,194.3 570.5,194.3 574.0,194.3 577.5,194.3 581.0,194.3 584.5,194.3 588.0,194.3 591.5,194.3 595.0,194.3 598.5,194.3 602.0,194.3 605.5,194.3 609.0,194.3 612.5,194.3 616.0,194.3 619.5,194.3 623.0,194.3 626.5,194.3 630.0,194.3 633.5,194.3 637.0,194.3 640.5,194.3 644.0,194.3 647.5,194.3 651.0,194.3 654.5,194.3 658.0,194.3 661.5,194.3 665.0,194.3 668.5,194.3 672.0,194.3 675.5,194.3 679.0,194.3 682.5,194.3 685.9,194.3 689.4,194.3 692.9,194.3 696.4,194.3 699.9,194.3 703.4,194.3 706.9,194.3 710.4,194.3 713.9,194.3 717.4,194.3 720.9,194.3 724.4,194.3 727.9,194.3 731.4,194.3 734.9,194.3 738.4,194.3 741.9,194.3 745.4,194.3 748.9,194.3 752.4,194.3 755.9,194.3 759.4,194.3 762.9,194.3 766.4,194.3 769.9,194.3 773.4,194.3 776.9,194.3 780.4,194.3 783.9,194.3 787.4,194.3 790.9,194.3 794.4,194.3 797.9,194.3 801.4,194.3 804.9,194.3 808.4,194.3 811.8,194.3 815.3,194.3 818.8,194.3 821.0,194.3 824.5,194.3 828.0,194.3 831.5,194.3 835.0,194.3 838.5,194.3 842.0,194.3 845.5,171.5 849.0,171.5 852.5,171.5 856.0,171.5" fill="none" stroke="#6c8cff" stroke-width="2.4" stroke-linejoin="round" stroke-linecap="round"/>
<circle cx="856.0" cy="171.5" r="4" fill="#6c8cff"/>
<polyline points="362.1,370.0 365.6,370.0 369.1,370.0 372.6,370.0 376.1,370.0 379.6,370.0 383.1,370.0 386.6,370.0 390.1,370.0 393.6,370.0 397.1,370.0 400.6,370.0 404.1,370.0 407.6,370.0 411.1,370.0 414.6,370.0 418.1,370.0 421.6,370.0 425.1,370.0 428.6,370.0 432.1,370.0 435.6,370.0 439.1,370.0 446.5,370.0 450.0,370.0 453.6,370.0 457.1,370.0 460.6,370.0 464.1,370.0 467.6,370.0 471.1,370.0 474.6,370.0 478.1,370.0 481.6,370.0 485.1,370.0 488.6,370.0 493.3,370.0 496.8,370.0 500.3,370.0 503.8,370.0 507.3,370.0 510.8,370.0 514.3,370.0 517.8,370.0 521.3,370.0 524.8,370.0 528.3,370.0 531.8,370.0 535.3,195.2 538.8,195.2 542.6,195.2 546.1,195.2 549.6,195.2 553.1,195.2 556.6,195.2 560.1,195.2 563.5,195.2 567.0,195.2 570.5,195.2 574.0,195.2 577.5,195.2 581.0,195.2 584.5,195.2 588.0,195.2 591.5,195.2 595.0,195.2 598.5,195.2 602.0,195.2 605.5,195.2 609.0,195.2 612.5,195.2 616.0,195.2 619.5,195.2 623.0,195.2 626.5,195.2 630.0,195.2 633.5,195.2 637.0,195.2 640.5,195.2 644.0,195.2 647.5,195.2 651.0,195.2 654.5,195.2 658.0,195.2 661.5,195.2 665.0,195.2 668.5,195.2 672.0,195.2 675.5,195.2 679.0,195.2 682.5,195.2 685.9,195.2 689.4,195.2 692.9,195.2 696.4,195.2 699.9,195.2 703.4,195.2 706.9,195.2 710.4,195.2 713.9,195.2 717.4,195.2 720.9,195.2 724.4,195.2 727.9,195.2 731.4,195.2 734.9,195.2 738.4,195.2 741.9,195.2 745.4,195.2 748.9,195.2 752.4,195.2 755.9,195.2 759.4,195.2 762.9,195.2 766.4,195.2 769.9,195.2 773.4,195.2 776.9,195.2 780.4,195.2 783.9,195.2 787.4,195.2 790.9,195.2 794.4,195.2 797.9,195.2 801.4,195.2 804.9,195.2 808.4,195.2 811.8,195.2 815.3,195.2 818.8,195.2 821.0,195.2 824.5,195.2 828.0,195.2 831.5,195.2 835.0,195.2 838.5,195.2 842.0,195.2 845.5,195.2 849.0,195.2 852.5,195.2 856.0,195.2" fill="none" stroke="#c58bff" stroke-width="2.4" stroke-linejoin="round" stroke-linecap="round"/>
<circle cx="856.0" cy="195.2" r="4" fill="#c58bff"/>
<polyline points="362.1,89.5 365.6,89.5 369.1,89.5 372.6,89.5 376.1,89.5 379.6,89.5 383.1,89.5 386.6,89.5 390.1,89.5 393.6,89.5 397.1,89.5 400.6,89.5 404.1,89.5 407.6,89.5 411.1,89.5 414.6,89.5 418.1,89.5 421.6,89.5 425.1,89.5 428.6,89.5 432.1,89.5 435.6,89.5 439.1,89.5 446.5,89.5 450.0,89.5 453.6,89.5 457.1,89.5 460.6,89.5 464.1,89.5 467.6,89.5 471.1,89.5 474.6,89.5 478.1,89.5 481.6,89.5 485.1,89.5 488.6,89.5 493.3,89.5 496.8,89.5 500.3,89.5 503.8,89.5 507.3,89.5 510.8,89.5 514.3,89.5 517.8,89.5 521.3,89.5 524.8,89.5 528.3,89.5 531.8,89.5 535.3,89.5 538.8,89.5 542.6,89.5 546.1,89.5 549.6,89.5 553.1,89.5 556.6,89.5 560.1,89.5 563.5,89.5 567.0,89.5 570.5,89.5 574.0,89.5 577.5,89.5 581.0,89.5 584.5,89.5 588.0,89.5 591.5,89.5 595.0,89.5 598.5,89.5 602.0,89.5 605.5,89.5 609.0,89.5 612.5,89.5 616.0,89.5 619.5,89.5 623.0,89.5 626.5,89.5 630.0,89.5 633.5,89.5 637.0,89.5 640.5,89.5 644.0,89.5 647.5,89.5 651.0,89.5 654.5,89.5 658.0,89.5 661.5,89.5 665.0,89.5 668.5,89.5 672.0,89.5 675.5,89.5 679.0,89.5 682.5,89.5 685.9,89.5 689.4,89.5 692.9,89.5 696.4,89.5 699.9,89.5 703.4,89.5 706.9,89.5 710.4,89.5 713.9,89.5 717.4,89.5 720.9,89.5 724.4,89.5 727.9,89.5 731.4,89.5 734.9,89.5 738.4,89.5 741.9,89.5 745.4,89.5 748.9,89.5 752.4,89.5 755.9,89.5 759.4,89.5 762.9,89.5 766.4,89.5 769.9,89.5 773.4,89.5 776.9,89.5 780.4,89.5 783.9,89.5 787.4,89.5 790.9,89.5 794.4,89.5 797.9,89.5 801.4,89.5 804.9,89.5 808.4,89.5 811.8,89.5 815.3,89.5 818.8,89.5 821.0,89.5 824.5,89.5 828.0,89.5 831.5,89.5 835.0,89.5 838.5,89.5 842.0,89.5 845.5,64.0 849.0,64.0 852.5,64.0 856.0,64.0" fill="none" stroke="#f2c94c" stroke-width="2.4" stroke-linejoin="round" stroke-linecap="round"/>
<circle cx="856.0" cy="64.0" r="4" fill="#f2c94c"/>
<polyline points="390.1,370.0 393.6,370.0 397.1,370.0 400.6,370.0 404.1,370.0 407.6,370.0 411.1,370.0 414.6,370.0 418.1,370.0 421.6,370.0 425.1,370.0 428.6,370.0 432.1,370.0 435.6,370.0 439.1,370.0 446.5,370.0 450.0,370.0 453.6,370.0 457.1,370.0 460.6,370.0 464.1,370.0 467.6,370.0 471.1,370.0 474.6,370.0 478.1,370.0 481.6,370.0 485.1,370.0 488.6,370.0 493.3,370.0 496.8,370.0 500.3,370.0 503.8,370.0 507.3,370.0 510.8,370.0 514.3,370.0 517.8,370.0 521.3,370.0 524.8,370.0 528.3,370.0 531.8,370.0 535.3,370.0 538.8,370.0 542.6,370.0 546.1,370.0 549.6,370.0 553.1,370.0 556.6,370.0 560.1,370.0 563.5,370.0 567.0,370.0 570.5,370.0 574.0,370.0 577.5,370.0 581.0,370.0 584.5,370.0 588.0,370.0 591.5,370.0 595.0,370.0 598.5,370.0 602.0,370.0 605.5,370.0 609.0,370.0 612.5,370.0 616.0,370.0 619.5,370.0 623.0,370.0 626.5,370.0 630.0,370.0 633.5,370.0 637.0,370.0 640.5,370.0 644.0,370.0 647.5,370.0 651.0,370.0 654.5,370.0 658.0,370.0 661.5,370.0 665.0,370.0 668.5,370.0 672.0,370.0 675.5,370.0 679.0,370.0 682.5,370.0 685.9,370.0 689.4,370.0 692.9,370.0 696.4,370.0 699.9,370.0 703.4,370.0 706.9,370.0 710.4,370.0 713.9,370.0 717.4,370.0 720.9,370.0 724.4,370.0 727.9,370.0 731.4,370.0 734.9,370.0 738.4,370.0 741.9,370.0 745.4,370.0 748.9,370.0 752.4,370.0 755.9,370.0 759.4,370.0 762.9,370.0 766.4,370.0 769.9,370.0 773.4,370.0 776.9,370.0 780.4,370.0 783.9,370.0 787.4,370.0 790.9,370.0 794.4,370.0 797.9,370.0 801.4,370.0 804.9,370.0 808.4,370.0 811.8,370.0 815.3,370.0 818.8,370.0 821.0,370.0 824.5,370.0 828.0,370.0 831.5,370.0 835.0,370.0 838.5,370.0 842.0,370.0 845.5,370.0 849.0,370.0 852.5,370.0 856.0,370.0" fill="none" stroke="#6fd3ff" stroke-width="2.4" stroke-linejoin="round" stroke-linecap="round"/>
<circle cx="856.0" cy="370.0" r="4" fill="#6fd3ff"/>
<polyline points="390.1,370.0 393.6,370.0 397.1,370.0 400.6,370.0 404.1,370.0 407.6,370.0 411.1,370.0 414.6,370.0 418.1,370.0 421.6,370.0 425.1,370.0 428.6,370.0 432.1,370.0 435.6,370.0 439.1,370.0 446.5,370.0 450.0,370.0 453.6,370.0 457.1,370.0 460.6,370.0 464.1,370.0 467.6,370.0 471.1,370.0 474.6,370.0 478.1,370.0 481.6,370.0 485.1,370.0 488.6,370.0 493.3,370.0 496.8,370.0 500.3,370.0 503.8,370.0 507.3,370.0 510.8,370.0 514.3,370.0 517.8,370.0 521.3,370.0 524.8,370.0 528.3,370.0 531.8,370.0 535.3,370.0 538.8,370.0 542.6,370.0 546.1,370.0 549.6,370.0 553.1,370.0 556.6,370.0 560.1,370.0 563.5,370.0 567.0,370.0 570.5,370.0 574.0,140.5 577.5,140.5 581.0,140.5 584.5,140.5 588.0,140.5 591.5,140.5 595.0,140.5 598.5,140.5 602.0,140.5 605.5,140.5 609.0,140.5 612.5,140.5 616.0,140.5 619.5,140.5 623.0,140.5 626.5,140.5 630.0,140.5 633.5,140.5 637.0,140.5 640.5,140.5 644.0,140.5 647.5,140.5 651.0,140.5 654.5,140.5 658.0,140.5 661.5,140.5 665.0,140.5 668.5,140.5 672.0,140.5 675.5,140.5 679.0,140.5 682.5,140.5 685.9,140.5 689.4,140.5 692.9,140.5 696.4,140.5 699.9,140.5 703.4,140.5 706.9,140.5 710.4,140.5 713.9,140.5 717.4,140.5 720.9,140.5 724.4,140.5 727.9,140.5 731.4,140.5 734.9,140.5 738.4,140.5 741.9,140.5 745.4,140.5 748.9,140.5 752.4,140.5 755.9,140.5 759.4,140.5 762.9,140.5 766.4,140.5 769.9,140.5 773.4,140.5 776.9,140.5 780.4,140.5 783.9,140.5 787.4,140.5 790.9,140.5 794.4,140.5 797.9,140.5 801.4,140.5 804.9,140.5 808.4,140.5 811.8,140.5 815.3,140.5 818.8,140.5 821.0,140.5 824.5,140.5 828.0,140.5 831.5,140.5 835.0,140.5 838.5,140.5 842.0,140.5 845.5,140.5 849.0,140.5 852.5,140.5 856.0,140.5" fill="none" stroke="#ffb86b" stroke-width="2.4" stroke-linejoin="round" stroke-linecap="round"/>
<circle cx="856.0" cy="140.5" r="4" fill="#ffb86b"/>
<polyline points="390.1,166.0 393.6,166.0 397.1,166.0 400.6,166.0 404.1,166.0 407.6,166.0 411.1,166.0 414.6,166.0 418.1,166.0 421.6,166.0 425.1,166.0 428.6,166.0 432.1,166.0 435.6,166.0 439.1,166.0 446.5,166.0 450.0,166.0 453.6,166.0 457.1,166.0 460.6,166.0 464.1,166.0 467.6,166.0 471.1,166.0 474.6,166.0 478.1,166.0 481.6,166.0 485.1,166.0 488.6,166.0 493.3,166.0 496.8,166.0 500.3,166.0 503.8,166.0 507.3,166.0 510.8,166.0 514.3,166.0 517.8,166.0 521.3,166.0 524.8,166.0 528.3,166.0 531.8,166.0 535.3,166.0 538.8,166.0 542.6,166.0 546.1,166.0 549.6,166.0 553.1,166.0 556.6,166.0 560.1,166.0 563.5,166.0 567.0,166.0 570.5,166.0 574.0,166.0 577.5,166.0 581.0,166.0 584.5,166.0 588.0,166.0 591.5,166.0 595.0,166.0 598.5,166.0 602.0,166.0 605.5,166.0 609.0,166.0 612.5,166.0 616.0,166.0 619.5,166.0 623.0,166.0 626.5,166.0 630.0,166.0 633.5,166.0 637.0,166.0 640.5,166.0 644.0,166.0 647.5,166.0 651.0,166.0 654.5,166.0 658.0,166.0 661.5,166.0 665.0,166.0 668.5,166.0 672.0,166.0 675.5,166.0 679.0,166.0 682.5,166.0 685.9,166.0 689.4,166.0 692.9,166.0 696.4,166.0 699.9,166.0 703.4,166.0 706.9,166.0 710.4,166.0 713.9,166.0 717.4,166.0 720.9,166.0 724.4,166.0 727.9,166.0 731.4,166.0 734.9,166.0 738.4,166.0 741.9,166.0 745.4,166.0 748.9,166.0 752.4,166.0 755.9,166.0 759.4,166.0 762.9,166.0 766.4,166.0 769.9,166.0 773.4,166.0 776.9,166.0 780.4,166.0 783.9,166.0 787.4,166.0 790.9,166.0 794.4,166.0 797.9,166.0 801.4,166.0 804.9,166.0 808.4,166.0 811.8,166.0 815.3,166.0 818.8,166.0 821.0,166.0 824.5,166.0 828.0,166.0 831.5,166.0 835.0,166.0 838.5,166.0 842.0,166.0 845.5,166.0 849.0,166.0 852.5,166.0 856.0,166.0" fill="none" stroke="#9be564" stroke-width="2.4" stroke-linejoin="round" stroke-linecap="round"/>
<circle cx="856.0" cy="166.0" r="4" fill="#9be564"/>
<polyline points="446.5,76.4 450.0,76.4 453.6,76.4 457.1,76.4 460.6,76.4 464.1,76.4 467.6,76.4 471.1,76.4 474.6,76.4 478.1,76.4 481.6,76.4 485.1,76.4 488.6,76.4 493.3,76.4 496.8,76.4 500.3,76.4 503.8,76.4 507.3,76.4 510.8,76.4 514.3,76.4 517.8,76.4 521.3,76.4 524.8,76.4 528.3,76.4 531.8,76.4 535.3,69.1 538.8,69.1 542.6,69.1 546.1,69.1 549.6,69.1 553.1,69.1 556.6,69.1 560.1,69.1 563.5,72.3 567.0,72.3 570.5,72.3 574.0,64.0 577.5,64.0 581.0,64.0 584.5,64.0 588.0,64.0 591.5,64.0 595.0,64.0 598.5,64.0 602.0,64.0 605.5,64.0 609.0,64.0 612.5,64.0 616.0,64.0 619.5,64.0 623.0,64.0 626.5,64.0 630.0,64.0 633.5,64.0 637.0,64.0 640.5,64.0 644.0,64.0 647.5,64.0 651.0,64.0 654.5,64.0 658.0,64.0 661.5,64.0 665.0,64.0 668.5,64.0 672.0,64.0 675.5,64.0 679.0,64.0 682.5,64.0 685.9,64.0 689.4,64.0 692.9,64.0 696.4,64.0 699.9,64.0 703.4,64.0 706.9,64.0 710.4,64.0 713.9,64.0 717.4,64.0 720.9,64.0 724.4,64.0 727.9,64.0 731.4,64.0 734.9,64.0 738.4,64.0 741.9,64.0 745.4,64.0 748.9,64.0 752.4,64.0 755.9,64.0 759.4,64.0 762.9,64.0 766.4,64.0 769.9,64.0 773.4,64.0 776.9,64.0 780.4,64.0 783.9,64.0 787.4,64.0 790.9,64.0 794.4,64.0 797.9,64.0 801.4,64.0 804.9,64.0 808.4,64.0 811.8,64.0 815.3,64.0 818.8,64.0 821.0,64.0 824.5,64.0 828.0,64.0 831.5,64.0 835.0,64.0 838.5,64.0 842.0,64.0 845.5,64.0 849.0,64.0 852.5,64.0 856.0,64.0" fill="none" stroke="#3ddc84" stroke-width="2.4" stroke-linejoin="round" stroke-linecap="round"/>
<circle cx="856.0" cy="64.0" r="4" fill="#3ddc84"/>
<polyline points="390.1,370.0 393.6,370.0 397.1,370.0 400.6,370.0 404.1,370.0 407.6,370.0 411.1,370.0 414.6,370.0 418.1,370.0 421.6,370.0 425.1,370.0 428.6,370.0 432.1,370.0 435.6,370.0 439.1,370.0 446.5,370.0 450.0,370.0 453.6,370.0 457.1,370.0 460.6,370.0 464.1,370.0 467.6,370.0 471.1,370.0 474.6,370.0 478.1,370.0 481.6,370.0 485.1,370.0 488.6,370.0 493.3,370.0 496.8,370.0 500.3,370.0 503.8,370.0 507.3,370.0 510.8,370.0 514.3,370.0 517.8,370.0 521.3,370.0 524.8,370.0 528.3,370.0 531.8,370.0 535.3,370.0 538.8,370.0 542.6,370.0 546.1,370.0 549.6,370.0 553.1,370.0 556.6,370.0 560.1,370.0 563.5,370.0 567.0,370.0 570.5,370.0 574.0,370.0 577.5,370.0 581.0,370.0 584.5,370.0 588.0,370.0 591.5,370.0 595.0,370.0 598.5,370.0 602.0,370.0 605.5,370.0 609.0,370.0 612.5,370.0 616.0,370.0 619.5,370.0 623.0,370.0 626.5,370.0 630.0,370.0 633.5,370.0 637.0,370.0 640.5,370.0 644.0,370.0 647.5,370.0 651.0,370.0 654.5,370.0 658.0,370.0 661.5,370.0 665.0,370.0 668.5,370.0 672.0,370.0 675.5,370.0 679.0,370.0 682.5,370.0 685.9,370.0 689.4,370.0 692.9,370.0 696.4,370.0 699.9,370.0 703.4,370.0 706.9,370.0 710.4,370.0 713.9,370.0 717.4,370.0 720.9,370.0 724.4,370.0 727.9,370.0 731.4,370.0 734.9,370.0 738.4,370.0 741.9,370.0 745.4,370.0 748.9,370.0 752.4,370.0 755.9,370.0 759.4,370.0 762.9,370.0 766.4,370.0 769.9,370.0 773.4,370.0 776.9,370.0 780.4,370.0 783.9,370.0 787.4,370.0 790.9,370.0 794.4,370.0 797.9,370.0 801.4,370.0 804.9,370.0 808.4,370.0 811.8,370.0 815.3,370.0 818.8,370.0 821.0,370.0 824.5,370.0 828.0,370.0 831.5,370.0 835.0,370.0 838.5,370.0 842.0,370.0 845.5,370.0 849.0,370.0 852.5,370.0 856.0,370.0" fill="none" stroke="#ff6b81" stroke-width="2.4" stroke-linejoin="round" stroke-linecap="round"/>
<circle cx="856.0" cy="370.0" r="4" fill="#ff6b81"/>
<rect x="56" y="401" width="14" height="4" rx="2" fill="#7c5cff"/>
<text x="78" y="410" font-family="-apple-system,Segoe UI,Helvetica,Arial,sans-serif" font-size="12" fill="#e6e7fa">Game.exe functions named in Ghidra — 100%</text>
<rect x="456" y="401" width="14" height="4" rx="2" fill="#8f7cff"/>
<text x="478" y="410" font-family="-apple-system,Segoe UI,Helvetica,Arial,sans-serif" font-size="12" fill="#e6e7fa">Hedged exe names re-verified against the decompile — 78%</text>
<rect x="56" y="421" width="14" height="4" rx="2" fill="#2fb67c"/>
<text x="78" y="430" font-family="-apple-system,Segoe UI,Helvetica,Arial,sans-serif" font-size="12" fill="#e6e7fa">Original source files indexed — 100%</text>
<rect x="456" y="421" width="14" height="4" rx="2" fill="#2f9bff"/>
<text x="478" y="430" font-family="-apple-system,Segoe UI,Helvetica,Arial,sans-serif" font-size="12" fill="#e6e7fa">Source files studied in depth — 69%</text>
<rect x="56" y="441" width="14" height="4" rx="2" fill="#22c1c3"/>
<text x="78" y="450" font-family="-apple-system,Segoe UI,Helvetica,Arial,sans-serif" font-size="12" fill="#e6e7fa">Level generator proven equal to the real game — 100%</text>
<rect x="456" y="441" width="14" height="4" rx="2" fill="#f2a81d"/>
<text x="478" y="450" font-family="-apple-system,Segoe UI,Helvetica,Arial,sans-serif" font-size="12" fill="#e6e7fa">Real .d2s save: read and write verified — 90%</text>
<rect x="56" y="461" width="14" height="4" rx="2" fill="#ef5da8"/>
<text x="78" y="470" font-family="-apple-system,Segoe UI,Helvetica,Arial,sans-serif" font-size="12" fill="#e6e7fa">NPC interaction features — 100%</text>
<rect x="456" y="461" width="14" height="4" rx="2" fill="#ff7a45"/>
<text x="478" y="470" font-family="-apple-system,Segoe UI,Helvetica,Arial,sans-serif" font-size="12" fill="#e6e7fa">Acts playable end to end (scripted play) — 100%</text>
<rect x="56" y="481" width="14" height="4" rx="2" fill="#ff9f43"/>
<text x="78" y="490" font-family="-apple-system,Segoe UI,Helvetica,Arial,sans-serif" font-size="12" fill="#e6e7fa">Levels walked by a verify scenario — 67%</text>
<rect x="456" y="481" width="14" height="4" rx="2" fill="#e86fa6"/>
<text x="478" y="490" font-family="-apple-system,Segoe UI,Helvetica,Arial,sans-serif" font-size="12" fill="#e6e7fa">Main quests with logic implemented — 100%</text>
<rect x="56" y="501" width="14" height="4" rx="2" fill="#5fd0a5"/>
<text x="78" y="510" font-family="-apple-system,Segoe UI,Helvetica,Arial,sans-serif" font-size="12" fill="#e6e7fa">Player skills with engine behaviour — 71%</text>
<rect x="456" y="501" width="14" height="4" rx="2" fill="#4aa8ff"/>
<text x="478" y="510" font-family="-apple-system,Segoe UI,Helvetica,Arial,sans-serif" font-size="12" fill="#e6e7fa">Monster AI archetypes implemented — 98%</text>
<rect x="56" y="521" width="14" height="4" rx="2" fill="#6c8cff"/>
<text x="78" y="530" font-family="-apple-system,Segoe UI,Helvetica,Arial,sans-serif" font-size="12" fill="#e6e7fa">Monster AI archetypes ported faithfully — 65%</text>
<rect x="456" y="521" width="14" height="4" rx="2" fill="#c58bff"/>
<text x="478" y="530" font-family="-apple-system,Segoe UI,Helvetica,Arial,sans-serif" font-size="12" fill="#e6e7fa">In-game UI panels matching the original layout — 57%</text>
<rect x="56" y="541" width="14" height="4" rx="2" fill="#f2c94c"/>
<text x="78" y="550" font-family="-apple-system,Segoe UI,Helvetica,Arial,sans-serif" font-size="12" fill="#e6e7fa">Item generation gaps closed vs the exe — 100%</text>
<rect x="456" y="541" width="14" height="4" rx="2" fill="#6fd3ff"/>
<text x="478" y="550" font-family="-apple-system,Segoe UI,Helvetica,Arial,sans-serif" font-size="12" fill="#e6e7fa">Sound and music confirmed by a human listen — 0%</text>
<rect x="56" y="561" width="14" height="4" rx="2" fill="#ffb86b"/>
<text x="78" y="570" font-family="-apple-system,Segoe UI,Helvetica,Arial,sans-serif" font-size="12" fill="#e6e7fa">Multiplayer playable through the game screen — 75%</text>
<rect x="456" y="561" width="14" height="4" rx="2" fill="#9be564"/>
<text x="478" y="570" font-family="-apple-system,Segoe UI,Helvetica,Arial,sans-serif" font-size="12" fill="#e6e7fa">Mac app: build, Finder launch with real maps, disk image — 67%</text>
<rect x="56" y="581" width="14" height="4" rx="2" fill="#3ddc84"/>
<text x="78" y="590" font-family="-apple-system,Segoe UI,Helvetica,Arial,sans-serif" font-size="12" fill="#e6e7fa">Real full verify green (scenario sections per job, real parallel log) — 100%</text>
<rect x="456" y="581" width="14" height="4" rx="2" fill="#ff6b81"/>
<text x="478" y="590" font-family="-apple-system,Segoe UI,Helvetica,Arial,sans-serif" font-size="12" fill="#e6e7fa">Acts played start to finish by a human tester — 0%</text>
</svg>