<svg xmlns="http://www.w3.org/2000/svg" width="880" height="520" viewBox="0 0 880 520" role="img" aria-label="Progress over time">
<rect width="880" height="520" rx="18" fill="#14162a"/>
<text x="56" y="36" font-family="-apple-system,Segoe UI,Helvetica,Arial,sans-serif" font-size="22" font-weight="700" fill="#fff">Progress over time</text>
<text x="856" y="36" text-anchor="end" font-family="-apple-system,Segoe UI,Helvetica,Arial,sans-serif" font-size="12" fill="#8c8eb0">snapshot every 10 min · latest 2026-10-10 01:38 UTC</text>
<line x1="56" y1="370.0" x2="856" y2="370.0" stroke="#fff" stroke-opacity="0.22"/>
<text x="48" y="374.0" text-anchor="end" font-family="-apple-system,Segoe UI,Helvetica,Arial,sans-serif" font-size="11" fill="#9fa1c4">0%</text>
<line x1="56" y1="308.8" x2="856" y2="308.8" stroke="#fff" stroke-opacity="0.08"/>
<text x="48" y="312.8" text-anchor="end" font-family="-apple-system,Segoe UI,Helvetica,Arial,sans-serif" font-size="11" fill="#9fa1c4">20%</text>
<line x1="56" y1="247.6" x2="856" y2="247.6" stroke="#fff" stroke-opacity="0.08"/>
<text x="48" y="251.6" text-anchor="end" font-family="-apple-system,Segoe UI,Helvetica,Arial,sans-serif" font-size="11" fill="#9fa1c4">40%</text>
<line x1="56" y1="186.4" x2="856" y2="186.4" stroke="#fff" stroke-opacity="0.08"/>
<text x="48" y="190.4" text-anchor="end" font-family="-apple-system,Segoe UI,Helvetica,Arial,sans-serif" font-size="11" fill="#9fa1c4">60%</text>
<line x1="56" y1="125.2" x2="856" y2="125.2" stroke="#fff" stroke-opacity="0.08"/>
<text x="48" y="129.2" text-anchor="end" font-family="-apple-system,Segoe UI,Helvetica,Arial,sans-serif" font-size="11" fill="#9fa1c4">80%</text>
<line x1="56" y1="64.0" x2="856" y2="64.0" stroke="#fff" stroke-opacity="0.22"/>
<text x="48" y="68.0" text-anchor="end" font-family="-apple-system,Segoe UI,Helvetica,Arial,sans-serif" font-size="11" fill="#9fa1c4">100%</text>
<line x1="56.0" y1="64" x2="56.0" y2="370" stroke="#fff" stroke-opacity="0.05"/>
<text x="56.0" y="386" text-anchor="middle" font-family="-apple-system,Segoe UI,Helvetica,Arial,sans-serif" font-size="11" fill="#9fa1c4">10-09 02:19</text>
<line x1="189.3" y1="64" x2="189.3" y2="370" stroke="#fff" stroke-opacity="0.05"/>
<text x="189.3" y="386" text-anchor="middle" font-family="-apple-system,Segoe UI,Helvetica,Arial,sans-serif" font-size="11" fill="#9fa1c4">10-09 05:02</text>
<line x1="322.7" y1="64" x2="322.7" y2="370" stroke="#fff" stroke-opacity="0.05"/>
<text x="322.7" y="386" text-anchor="middle" font-family="-apple-system,Segoe UI,Helvetica,Arial,sans-serif" font-size="11" fill="#9fa1c4">10-09 07:45</text>
<line x1="456.0" y1="64" x2="456.0" y2="370" stroke="#fff" stroke-opacity="0.05"/>
<text x="456.0" y="386" text-anchor="middle" font-family="-apple-system,Segoe UI,Helvetica,Arial,sans-serif" font-size="11" fill="#9fa1c4">10-09 10:28</text>
<line x1="589.3" y1="64" x2="589.3" y2="370" stroke="#fff" stroke-opacity="0.05"/>
<text x="589.3" y="386" text-anchor="middle" font-family="-apple-system,Segoe UI,Helvetica,Arial,sans-serif" font-size="11" fill="#9fa1c4">10-09 13:11</text>
<line x1="722.7" y1="64" x2="722.7" y2="370" stroke="#fff" stroke-opacity="0.05"/>
<text x="722.7" y="386" text-anchor="middle" font-family="-apple-system,Segoe UI,Helvetica,Arial,sans-serif" font-size="11" fill="#9fa1c4">10-09 15:55</text>
<line x1="856.0" y1="64" x2="856.0" y2="370" stroke="#fff" stroke-opacity="0.05"/>
<text x="856.0" y="386" text-anchor="middle" font-family="-apple-system,Segoe UI,Helvetica,Arial,sans-serif" font-size="11" fill="#9fa1c4">10-09 18:38</text>
<polyline points="56.0,346.2 58.5,343.1 61.1,343.1 63.6,334.4 75.9,327.0 96.0,315.4 97.9,315.4 101.6,309.0 113.8,304.8 129.6,304.8 152.3,302.2 163.9,302.2 168.3,302.2 198.2,302.2 211.7,302.2 220.4,302.2 239.7,299.9 329.4,299.9 368.6,248.8 370.1,248.8 370.3,248.8 370.6,248.8 378.8,248.8 387.0,248.8 395.2,248.8 403.4,248.8 411.7,248.8 419.9,248.8 428.1,248.8 436.3,248.8 444.5,248.8 452.7,248.8 461.0,248.8 469.3,248.8 477.5,248.8 485.7,248.8 494.0,248.8 507.1,248.8 520.4,248.8 532.2,248.8 560.3,198.2 560.3,198.2 568.6,195.3 576.8,195.3 585.0,195.3 593.3,195.3 601.5,195.3 609.7,195.3 617.9,158.3 626.1,158.3 634.3,158.3 642.5,158.3 650.7,158.3 659.0,158.3 667.2,158.3 675.4,158.3 683.6,158.3 691.8,158.3 700.0,158.3 708.2,158.3 716.4,158.3 724.6,158.3 732.8,158.3 741.0,158.3 749.3,64.6 757.5,64.6 765.7,64.6 773.9,64.6 782.1,64.6 790.3,64.6 798.5,64.6 806.7,64.6 815.0,64.6 823.2,64.6 831.4,64.6 839.6,64.6 847.8,64.6 856.0,64.6" fill="none" stroke="#7c5cff" stroke-width="2.4" stroke-linejoin="round" stroke-linecap="round"/>
<circle cx="856.0" cy="64.6" r="4" fill="#7c5cff"/>
<polyline points="806.7,130.5 815.0,130.5 823.2,130.5 831.4,130.5 839.6,130.5 847.8,130.5 856.0,130.5" fill="none" stroke="#8f7cff" stroke-width="2.4" stroke-linejoin="round" stroke-linecap="round"/>
<circle cx="856.0" cy="130.5" r="4" fill="#8f7cff"/>
<polyline points="56.0,64.0 58.5,64.0 61.1,64.0 63.6,64.0 75.9,64.0 96.0,64.0 97.9,64.0 101.6,64.0 113.8,64.0 129.6,64.0 152.3,64.0 163.9,64.0 168.3,64.0 198.2,64.0 211.7,64.0 220.4,64.0 239.7,64.0 329.4,64.0 368.6,64.0 370.1,64.0 370.3,64.0 370.6,64.0 378.8,64.0 387.0,64.0 395.2,64.0 403.4,64.0 411.7,64.0 419.9,64.0 428.1,64.0 436.3,64.0 444.5,64.0 452.7,64.0 461.0,64.0 469.3,64.0 477.5,64.0 485.7,64.0 494.0,64.0 507.1,64.0 520.4,64.0 532.2,64.0 560.3,64.0 560.3,64.0 568.6,64.0 576.8,64.0 585.0,64.0 593.3,64.0 601.5,64.0 609.7,64.0 617.9,64.0 626.1,64.0 634.3,64.0 642.5,64.0 650.7,64.0 659.0,64.0 667.2,64.0 675.4,64.0 683.6,64.0 691.8,64.0 700.0,64.0 708.2,64.0 716.4,64.0 724.6,64.0 732.8,64.0 741.0,64.0 749.3,64.0 757.5,64.0 765.7,64.0 773.9,64.0 782.1,64.0 790.3,64.0 798.5,64.0 806.7,64.0 815.0,64.0 823.2,64.0 831.4,64.0 839.6,64.0 847.8,64.0 856.0,64.0" fill="none" stroke="#2fb67c" stroke-width="2.4" stroke-linejoin="round" stroke-linecap="round"/>
<circle cx="856.0" cy="64.0" r="4" fill="#2fb67c"/>
<polyline points="56.0,320.3 58.5,303.7 61.1,287.1 63.6,265.0 75.9,231.9 96.0,193.3 97.9,193.3 101.6,176.7 113.8,160.1 129.6,138.0 152.3,138.0 163.9,138.0 168.3,138.0 198.2,138.0 211.7,138.0 220.4,138.0 239.7,160.1 329.4,160.1 368.6,160.1 370.1,160.1 370.3,160.1 370.6,160.1 378.8,160.1 387.0,160.1 395.2,160.1 403.4,160.1 411.7,160.1 419.9,160.1 428.1,160.1 436.3,160.1 444.5,160.1 452.7,160.1 461.0,160.1 469.3,160.1 477.5,160.1 485.7,160.1 494.0,160.1 507.1,160.1 520.4,160.1 532.2,160.1 560.3,160.1 560.3,160.1 568.6,160.1 576.8,160.1 585.0,160.1 593.3,160.1 601.5,160.1 609.7,160.1 617.9,160.1 626.1,160.1 634.3,160.1 642.5,160.1 650.7,160.1 659.0,160.1 667.2,160.1 675.4,160.1 683.6,160.1 691.8,160.1 700.0,160.1 708.2,160.1 716.4,160.1 724.6,160.1 732.8,160.1 741.0,160.1 749.3,160.1 757.5,160.1 765.7,160.1 773.9,160.1 782.1,160.1 790.3,160.1 798.5,160.1 806.7,160.1 815.0,160.1 823.2,160.1 831.4,160.1 839.6,160.1 847.8,160.1 856.0,160.1" fill="none" stroke="#2f9bff" stroke-width="2.4" stroke-linejoin="round" stroke-linecap="round"/>
<circle cx="856.0" cy="160.1" r="4" fill="#2f9bff"/>
<polyline points="129.6,69.8 152.3,76.2 163.9,72.2 168.3,72.2 198.2,67.2 211.7,67.2 220.4,67.2 239.7,66.6 329.4,66.1 368.6,66.1 370.1,66.1 370.3,66.1 370.6,66.1 378.8,66.1 387.0,66.1 395.2,66.1 403.4,66.1 411.7,66.1 419.9,66.1 428.1,66.1 436.3,66.1 444.5,66.1 452.7,66.1 461.0,66.1 469.3,66.1 477.5,66.1 485.7,66.1 494.0,66.1 507.1,66.1 520.4,66.1 532.2,66.1 560.3,66.1 560.3,66.1 568.6,66.1 576.8,66.1 585.0,66.1 593.3,66.1 601.5,66.1 609.7,66.1 617.9,66.1 626.1,66.1 634.3,66.1 642.5,66.1 650.7,66.1 659.0,66.1 667.2,66.1 675.4,66.1 683.6,66.1 691.8,66.1 700.0,66.1 708.2,66.1 716.4,66.1 724.6,66.1 732.8,66.1 741.0,66.1 749.3,66.1 757.5,66.1 765.7,66.1 773.9,66.1 782.1,66.1 790.3,66.1 798.5,66.1 806.7,66.1 815.0,66.1 823.2,66.1 831.4,66.1 839.6,66.1 847.8,66.1 856.0,66.1" fill="none" stroke="#22c1c3" stroke-width="2.4" stroke-linejoin="round" stroke-linecap="round"/>
<circle cx="856.0" cy="66.1" r="4" fill="#22c1c3"/>
<polyline points="63.6,94.6 75.9,94.6 96.0,94.6 97.9,94.6 101.6,94.6 113.8,94.6 129.6,94.6 152.3,94.6 163.9,94.6 168.3,94.6 198.2,94.6 211.7,94.6 220.4,94.6 239.7,94.6 329.4,94.6 368.6,94.6 370.1,94.6 370.3,94.6 370.6,94.6 378.8,94.6 387.0,94.6 395.2,94.6 403.4,94.6 411.7,94.6 419.9,94.6 428.1,94.6 436.3,94.6 444.5,94.6 452.7,94.6 461.0,94.6 469.3,94.6 477.5,94.6 485.7,94.6 494.0,94.6 507.1,94.6 520.4,94.6 532.2,94.6 560.3,94.6 560.3,94.6 568.6,94.6 576.8,94.6 585.0,94.6 593.3,94.6 601.5,94.6 609.7,94.6 617.9,94.6 626.1,94.6 634.3,94.6 642.5,94.6 650.7,94.6 659.0,94.6 667.2,94.6 675.4,94.6 683.6,94.6 691.8,94.6 700.0,94.6 708.2,94.6 716.4,94.6 724.6,94.6 732.8,94.6 741.0,94.6 749.3,94.6 757.5,94.6 765.7,94.6 773.9,94.6 782.1,94.6 790.3,94.6 798.5,94.6 806.7,94.6 815.0,94.6 823.2,94.6 831.4,94.6 839.6,94.6 847.8,94.6 856.0,94.6" fill="none" stroke="#f2a81d" stroke-width="2.4" stroke-linejoin="round" stroke-linecap="round"/>
<circle cx="856.0" cy="94.6" r="4" fill="#f2a81d"/>
<polyline points="56.0,238.8 58.5,238.8 61.1,238.8 63.6,238.8 75.9,195.2 96.0,151.4 97.9,151.4 101.6,151.4 113.8,151.4 129.6,107.7 152.3,102.2 163.9,102.2 168.3,102.2 198.2,102.2 211.7,64.0 220.4,64.0 239.7,64.0 329.4,64.0 368.6,64.0 370.1,64.0 370.3,64.0 370.6,64.0 378.8,64.0 387.0,64.0 395.2,64.0 403.4,64.0 411.7,64.0 419.9,64.0 428.1,64.0 436.3,64.0 444.5,64.0 452.7,64.0 461.0,64.0 469.3,64.0 477.5,64.0 485.7,64.0 494.0,64.0 507.1,64.0 520.4,64.0 532.2,64.0 560.3,64.0 560.3,64.0 568.6,64.0 576.8,64.0 585.0,64.0 593.3,64.0 601.5,64.0 609.7,64.0 617.9,64.0 626.1,64.0 634.3,64.0 642.5,64.0 650.7,64.0 659.0,64.0 667.2,64.0 675.4,64.0 683.6,64.0 691.8,64.0 700.0,64.0 708.2,64.0 716.4,64.0 724.6,64.0 732.8,64.0 741.0,64.0 749.3,64.0 757.5,64.0 765.7,64.0 773.9,64.0 782.1,64.0 790.3,64.0 798.5,64.0 806.7,64.0 815.0,64.0 823.2,64.0 831.4,64.0 839.6,64.0 847.8,64.0 856.0,64.0" fill="none" stroke="#ef5da8" stroke-width="2.4" stroke-linejoin="round" stroke-linecap="round"/>
<circle cx="856.0" cy="64.0" r="4" fill="#ef5da8"/>
<polyline points="773.9,125.2 782.1,125.2 790.3,125.2 798.5,125.2 806.7,125.2 815.0,125.2 823.2,125.2 831.4,125.2 839.6,125.2 847.8,125.2 856.0,125.2" fill="none" stroke="#ff7a45" stroke-width="2.4" stroke-linejoin="round" stroke-linecap="round"/>
<circle cx="856.0" cy="125.2" r="4" fill="#ff7a45"/>
<polyline points="773.9,284.5 782.1,284.5 790.3,284.5 798.5,284.5 806.7,284.5 815.0,284.5 823.2,284.5 831.4,284.5 839.6,284.5 847.8,284.5 856.0,284.5" fill="none" stroke="#ff9f43" stroke-width="2.4" stroke-linejoin="round" stroke-linecap="round"/>
<circle cx="856.0" cy="284.5" r="4" fill="#ff9f43"/>
<polyline points="773.9,64.0 782.1,64.0 790.3,64.0 798.5,64.0 806.7,64.0 815.0,64.0 823.2,64.0 831.4,64.0 839.6,64.0 847.8,64.0 856.0,64.0" fill="none" stroke="#e86fa6" stroke-width="2.4" stroke-linejoin="round" stroke-linecap="round"/>
<circle cx="856.0" cy="64.0" r="4" fill="#e86fa6"/>
<polyline points="773.9,180.6 782.1,180.6 790.3,180.6 798.5,180.6 806.7,180.6 815.0,180.6 823.2,180.6 831.4,180.6 839.6,180.6 847.8,180.6 856.0,180.6" fill="none" stroke="#5fd0a5" stroke-width="2.4" stroke-linejoin="round" stroke-linecap="round"/>
<circle cx="856.0" cy="180.6" r="4" fill="#5fd0a5"/>
<polyline points="773.9,70.2 782.1,70.2 790.3,70.2 798.5,70.2 806.7,70.2 815.0,70.2 823.2,70.2 831.4,70.2 839.6,70.2 847.8,70.2 856.0,70.2" fill="none" stroke="#4aa8ff" stroke-width="2.4" stroke-linejoin="round" stroke-linecap="round"/>
<circle cx="856.0" cy="70.2" r="4" fill="#4aa8ff"/>
<polyline points="773.9,194.3 782.1,194.3 790.3,194.3 798.5,194.3 806.7,194.3 815.0,194.3 823.2,194.3 831.4,194.3 839.6,194.3 847.8,194.3 856.0,194.3" fill="none" stroke="#6c8cff" stroke-width="2.4" stroke-linejoin="round" stroke-linecap="round"/>
<circle cx="856.0" cy="194.3" r="4" fill="#6c8cff"/>
<polyline points="773.9,370.0 782.1,370.0 790.3,370.0 798.5,370.0 806.7,370.0 815.0,370.0 823.2,370.0 831.4,370.0 839.6,370.0 847.8,370.0 856.0,370.0" fill="none" stroke="#c58bff" stroke-width="2.4" stroke-linejoin="round" stroke-linecap="round"/>
<circle cx="856.0" cy="370.0" r="4" fill="#c58bff"/>
<polyline points="773.9,89.5 782.1,89.5 790.3,89.5 798.5,89.5 806.7,89.5 815.0,89.5 823.2,89.5 831.4,89.5 839.6,89.5 847.8,89.5 856.0,89.5" fill="none" stroke="#f2c94c" stroke-width="2.4" stroke-linejoin="round" stroke-linecap="round"/>
<circle cx="856.0" cy="89.5" r="4" fill="#f2c94c"/>
<polyline points="839.6,370.0 847.8,370.0 856.0,370.0" fill="none" stroke="#6fd3ff" stroke-width="2.4" stroke-linejoin="round" stroke-linecap="round"/>
<circle cx="856.0" cy="370.0" r="4" fill="#6fd3ff"/>
<polyline points="839.6,370.0 847.8,370.0 856.0,370.0" fill="none" stroke="#ffb86b" stroke-width="2.4" stroke-linejoin="round" stroke-linecap="round"/>
<circle cx="856.0" cy="370.0" r="4" fill="#ffb86b"/>
<polyline points="839.6,166.0 847.8,166.0 856.0,166.0" fill="none" stroke="#9be564" stroke-width="2.4" stroke-linejoin="round" stroke-linecap="round"/>
<circle cx="856.0" cy="166.0" r="4" fill="#9be564"/>
<polyline points="839.6,370.0 847.8,370.0 856.0,370.0" fill="none" stroke="#ff6b81" stroke-width="2.4" stroke-linejoin="round" stroke-linecap="round"/>
<circle cx="856.0" cy="370.0" r="4" fill="#ff6b81"/>
<rect x="56" y="401" width="14" height="4" rx="2" fill="#7c5cff"/>
<text x="78" y="410" font-family="-apple-system,Segoe UI,Helvetica,Arial,sans-serif" font-size="12" fill="#e6e7fa">Game.exe functions named in Ghidra — 100%</text>
<rect x="456" y="401" width="14" height="4" rx="2" fill="#8f7cff"/>
<text x="478" y="410" font-family="-apple-system,Segoe UI,Helvetica,Arial,sans-serif" font-size="12" fill="#e6e7fa">Hedged exe names re-verified against the decompile — 78%</text>
<rect x="56" y="421" width="14" height="4" rx="2" fill="#2fb67c"/>
<text x="78" y="430" font-family="-apple-system,Segoe UI,Helvetica,Arial,sans-serif" font-size="12" fill="#e6e7fa">Original source files indexed — 100%</text>
<rect x="456" y="421" width="14" height="4" rx="2" fill="#2f9bff"/>
<text x="478" y="430" font-family="-apple-system,Segoe UI,Helvetica,Arial,sans-serif" font-size="12" fill="#e6e7fa">Source files studied in depth — 69%</text>
<rect x="56" y="441" width="14" height="4" rx="2" fill="#22c1c3"/>
<text x="78" y="450" font-family="-apple-system,Segoe UI,Helvetica,Arial,sans-serif" font-size="12" fill="#e6e7fa">Level generator proven equal to the real game — 99%</text>
<rect x="456" y="441" width="14" height="4" rx="2" fill="#f2a81d"/>
<text x="478" y="450" font-family="-apple-system,Segoe UI,Helvetica,Arial,sans-serif" font-size="12" fill="#e6e7fa">Real .d2s save: read and write verified — 90%</text>
<rect x="56" y="461" width="14" height="4" rx="2" fill="#ef5da8"/>
<text x="78" y="470" font-family="-apple-system,Segoe UI,Helvetica,Arial,sans-serif" font-size="12" fill="#e6e7fa">NPC interaction features — 100%</text>
<rect x="456" y="461" width="14" height="4" rx="2" fill="#ff7a45"/>
<text x="478" y="470" font-family="-apple-system,Segoe UI,Helvetica,Arial,sans-serif" font-size="12" fill="#e6e7fa">Acts playable end to end (scripted play) — 80%</text>
<rect x="56" y="481" width="14" height="4" rx="2" fill="#ff9f43"/>
<text x="78" y="490" font-family="-apple-system,Segoe UI,Helvetica,Arial,sans-serif" font-size="12" fill="#e6e7fa">Levels walked by a verify scenario — 28%</text>
<rect x="456" y="481" width="14" height="4" rx="2" fill="#e86fa6"/>
<text x="478" y="490" font-family="-apple-system,Segoe UI,Helvetica,Arial,sans-serif" font-size="12" fill="#e6e7fa">Main quests with logic implemented — 100%</text>
<rect x="56" y="501" width="14" height="4" rx="2" fill="#5fd0a5"/>
<text x="78" y="510" font-family="-apple-system,Segoe UI,Helvetica,Arial,sans-serif" font-size="12" fill="#e6e7fa">Player skills with engine behaviour — 62%</text>
<rect x="456" y="501" width="14" height="4" rx="2" fill="#4aa8ff"/>
<text x="478" y="510" font-family="-apple-system,Segoe UI,Helvetica,Arial,sans-serif" font-size="12" fill="#e6e7fa">Monster AI archetypes implemented — 98%</text>
<rect x="56" y="521" width="14" height="4" rx="2" fill="#6c8cff"/>
<text x="78" y="530" font-family="-apple-system,Segoe UI,Helvetica,Arial,sans-serif" font-size="12" fill="#e6e7fa">Monster AI archetypes ported faithfully — 57%</text>
<rect x="456" y="521" width="14" height="4" rx="2" fill="#c58bff"/>
<text x="478" y="530" font-family="-apple-system,Segoe UI,Helvetica,Arial,sans-serif" font-size="12" fill="#e6e7fa">In-game UI panels matching the original layout — 0%</text>
<rect x="56" y="541" width="14" height="4" rx="2" fill="#f2c94c"/>
<text x="78" y="550" font-family="-apple-system,Segoe UI,Helvetica,Arial,sans-serif" font-size="12" fill="#e6e7fa">Item generation gaps closed vs the exe — 92%</text>
<rect x="456" y="541" width="14" height="4" rx="2" fill="#6fd3ff"/>
<text x="478" y="550" font-family="-apple-system,Segoe UI,Helvetica,Arial,sans-serif" font-size="12" fill="#e6e7fa">Sound and music confirmed by a human listen — 0%</text>
<rect x="56" y="561" width="14" height="4" rx="2" fill="#ffb86b"/>
<text x="78" y="570" font-family="-apple-system,Segoe UI,Helvetica,Arial,sans-serif" font-size="12" fill="#e6e7fa">Multiplayer playable through the game screen — 0%</text>
<rect x="456" y="561" width="14" height="4" rx="2" fill="#9be564"/>
<text x="478" y="570" font-family="-apple-system,Segoe UI,Helvetica,Arial,sans-serif" font-size="12" fill="#e6e7fa">Mac app: build, Finder launch with real maps, disk image — 67%</text>
<rect x="56" y="581" width="14" height="4" rx="2" fill="#ff6b81"/>
<text x="78" y="590" font-family="-apple-system,Segoe UI,Helvetica,Arial,sans-serif" font-size="12" fill="#e6e7fa">Acts played start to finish by a human tester — 0%</text>
</svg>