<svg xmlns="http://www.w3.org/2000/svg" width="880" height="520" viewBox="0 0 880 520" role="img" aria-label="Progress over time">
<rect width="880" height="520" rx="18" fill="#14162a"/>
<text x="56" y="36" font-family="-apple-system,Segoe UI,Helvetica,Arial,sans-serif" font-size="22" font-weight="700" fill="#fff">Progress over time</text>
<text x="856" y="36" text-anchor="end" font-family="-apple-system,Segoe UI,Helvetica,Arial,sans-serif" font-size="12" fill="#8c8eb0">snapshot every 10 min · latest 2026-10-09 17:34 UTC</text>
<line x1="56" y1="370.0" x2="856" y2="370.0" stroke="#fff" stroke-opacity="0.22"/>
<text x="48" y="374.0" text-anchor="end" font-family="-apple-system,Segoe UI,Helvetica,Arial,sans-serif" font-size="11" fill="#9fa1c4">0%</text>
<line x1="56" y1="308.8" x2="856" y2="308.8" stroke="#fff" stroke-opacity="0.08"/>
<text x="48" y="312.8" text-anchor="end" font-family="-apple-system,Segoe UI,Helvetica,Arial,sans-serif" font-size="11" fill="#9fa1c4">20%</text>
<line x1="56" y1="247.6" x2="856" y2="247.6" stroke="#fff" stroke-opacity="0.08"/>
<text x="48" y="251.6" text-anchor="end" font-family="-apple-system,Segoe UI,Helvetica,Arial,sans-serif" font-size="11" fill="#9fa1c4">40%</text>
<line x1="56" y1="186.4" x2="856" y2="186.4" stroke="#fff" stroke-opacity="0.08"/>
<text x="48" y="190.4" text-anchor="end" font-family="-apple-system,Segoe UI,Helvetica,Arial,sans-serif" font-size="11" fill="#9fa1c4">60%</text>
<line x1="56" y1="125.2" x2="856" y2="125.2" stroke="#fff" stroke-opacity="0.08"/>
<text x="48" y="129.2" text-anchor="end" font-family="-apple-system,Segoe UI,Helvetica,Arial,sans-serif" font-size="11" fill="#9fa1c4">80%</text>
<line x1="56" y1="64.0" x2="856" y2="64.0" stroke="#fff" stroke-opacity="0.22"/>
<text x="48" y="68.0" text-anchor="end" font-family="-apple-system,Segoe UI,Helvetica,Arial,sans-serif" font-size="11" fill="#9fa1c4">100%</text>
<line x1="56.0" y1="64" x2="56.0" y2="370" stroke="#fff" stroke-opacity="0.05"/>
<text x="56.0" y="386" text-anchor="middle" font-family="-apple-system,Segoe UI,Helvetica,Arial,sans-serif" font-size="11" fill="#9fa1c4">10-09 02:19</text>
<line x1="189.3" y1="64" x2="189.3" y2="370" stroke="#fff" stroke-opacity="0.05"/>
<text x="189.3" y="386" text-anchor="middle" font-family="-apple-system,Segoe UI,Helvetica,Arial,sans-serif" font-size="11" fill="#9fa1c4">10-09 03:42</text>
<line x1="322.7" y1="64" x2="322.7" y2="370" stroke="#fff" stroke-opacity="0.05"/>
<text x="322.7" y="386" text-anchor="middle" font-family="-apple-system,Segoe UI,Helvetica,Arial,sans-serif" font-size="11" fill="#9fa1c4">10-09 05:04</text>
<line x1="456.0" y1="64" x2="456.0" y2="370" stroke="#fff" stroke-opacity="0.05"/>
<text x="456.0" y="386" text-anchor="middle" font-family="-apple-system,Segoe UI,Helvetica,Arial,sans-serif" font-size="11" fill="#9fa1c4">10-09 06:27</text>
<line x1="589.3" y1="64" x2="589.3" y2="370" stroke="#fff" stroke-opacity="0.05"/>
<text x="589.3" y="386" text-anchor="middle" font-family="-apple-system,Segoe UI,Helvetica,Arial,sans-serif" font-size="11" fill="#9fa1c4">10-09 07:49</text>
<line x1="722.7" y1="64" x2="722.7" y2="370" stroke="#fff" stroke-opacity="0.05"/>
<text x="722.7" y="386" text-anchor="middle" font-family="-apple-system,Segoe UI,Helvetica,Arial,sans-serif" font-size="11" fill="#9fa1c4">10-09 09:12</text>
<line x1="856.0" y1="64" x2="856.0" y2="370" stroke="#fff" stroke-opacity="0.05"/>
<text x="856.0" y="386" text-anchor="middle" font-family="-apple-system,Segoe UI,Helvetica,Arial,sans-serif" font-size="11" fill="#9fa1c4">10-09 10:34</text>
<polyline points="56.0,346.2 60.8,343.1 66.1,343.1 71.0,334.4 95.2,327.0 135.0,315.4 138.7,315.4 146.1,309.0 170.1,304.8 201.4,304.8 246.1,302.2 269.1,302.2 277.9,302.2 336.9,302.2 363.6,302.2 380.8,302.2 418.8,299.9 596.1,299.9 673.5,248.8 676.4,248.8 676.8,248.8 677.5,248.8 693.7,248.8 709.9,248.8 726.1,248.8 742.3,248.8 758.5,248.8 774.8,248.8 791.0,248.8 807.2,248.8 823.4,248.8 839.7,248.8 856.0,248.8" fill="none" stroke="#7c5cff" stroke-width="2.4" stroke-linejoin="round" stroke-linecap="round"/>
<circle cx="856.0" cy="248.8" r="4" fill="#7c5cff"/>
<polyline points="56.0,64.0 60.8,64.0 66.1,64.0 71.0,64.0 95.2,64.0 135.0,64.0 138.7,64.0 146.1,64.0 170.1,64.0 201.4,64.0 246.1,64.0 269.1,64.0 277.9,64.0 336.9,64.0 363.6,64.0 380.8,64.0 418.8,64.0 596.1,64.0 673.5,64.0 676.4,64.0 676.8,64.0 677.5,64.0 693.7,64.0 709.9,64.0 726.1,64.0 742.3,64.0 758.5,64.0 774.8,64.0 791.0,64.0 807.2,64.0 823.4,64.0 839.7,64.0 856.0,64.0" fill="none" stroke="#2fb67c" stroke-width="2.4" stroke-linejoin="round" stroke-linecap="round"/>
<circle cx="856.0" cy="64.0" r="4" fill="#2fb67c"/>
<polyline points="56.0,320.3 60.8,303.7 66.1,287.1 71.0,265.0 95.2,231.9 135.0,193.3 138.7,193.3 146.1,176.7 170.1,160.1 201.4,138.0 246.1,138.0 269.1,138.0 277.9,138.0 336.9,138.0 363.6,138.0 380.8,138.0 418.8,160.1 596.1,160.1 673.5,160.1 676.4,160.1 676.8,160.1 677.5,160.1 693.7,160.1 709.9,160.1 726.1,160.1 742.3,160.1 758.5,160.1 774.8,160.1 791.0,160.1 807.2,160.1 823.4,160.1 839.7,160.1 856.0,160.1" fill="none" stroke="#2f9bff" stroke-width="2.4" stroke-linejoin="round" stroke-linecap="round"/>
<circle cx="856.0" cy="160.1" r="4" fill="#2f9bff"/>
<polyline points="201.4,69.8 246.1,76.2 269.1,72.2 277.9,72.2 336.9,67.2 363.6,67.2 380.8,67.2 418.8,66.6 596.1,66.1 673.5,66.1 676.4,66.1 676.8,66.1 677.5,66.1 693.7,66.1 709.9,66.1 726.1,66.1 742.3,66.1 758.5,66.1 774.8,66.1 791.0,66.1 807.2,66.1 823.4,66.1 839.7,66.1 856.0,66.1" fill="none" stroke="#22c1c3" stroke-width="2.4" stroke-linejoin="round" stroke-linecap="round"/>
<circle cx="856.0" cy="66.1" r="4" fill="#22c1c3"/>
<polyline points="71.0,94.6 95.2,94.6 135.0,94.6 138.7,94.6 146.1,94.6 170.1,94.6 201.4,94.6 246.1,94.6 269.1,94.6 277.9,94.6 336.9,94.6 363.6,94.6 380.8,94.6 418.8,94.6 596.1,94.6 673.5,94.6 676.4,94.6 676.8,94.6 677.5,94.6 693.7,94.6 709.9,94.6 726.1,94.6 742.3,94.6 758.5,94.6 774.8,94.6 791.0,94.6 807.2,94.6 823.4,94.6 839.7,94.6 856.0,94.6" fill="none" stroke="#f2a81d" stroke-width="2.4" stroke-linejoin="round" stroke-linecap="round"/>
<circle cx="856.0" cy="94.6" r="4" fill="#f2a81d"/>
<polyline points="56.0,238.8 60.8,238.8 66.1,238.8 71.0,238.8 95.2,195.2 135.0,151.4 138.7,151.4 146.1,151.4 170.1,151.4 201.4,107.7 246.1,102.2 269.1,102.2 277.9,102.2 336.9,102.2 363.6,64.0 380.8,64.0 418.8,64.0 596.1,64.0 673.5,64.0 676.4,64.0 676.8,64.0 677.5,64.0 693.7,64.0 709.9,64.0 726.1,64.0 742.3,64.0 758.5,64.0 774.8,64.0 791.0,64.0 807.2,64.0 823.4,64.0 839.7,64.0 856.0,64.0" fill="none" stroke="#ef5da8" stroke-width="2.4" stroke-linejoin="round" stroke-linecap="round"/>
<circle cx="856.0" cy="64.0" r="4" fill="#ef5da8"/>
<polyline points="56.0,268.0 60.8,242.5 66.1,242.5 71.0,205.2 95.2,134.6 135.0,125.2 138.7,104.8 146.1,104.8 170.1,104.8 201.4,133.6 246.1,127.7 269.1,111.1 277.9,99.3 336.9,103.5 363.6,93.6 380.8,83.7 418.8,96.2 596.1,105.7 673.5,105.7 676.4,105.7 676.8,105.7 677.5,105.7 693.7,105.7 709.9,105.7 726.1,105.7 742.3,105.7 758.5,105.7 774.8,105.7 791.0,105.7 807.2,105.7 823.4,105.7 839.7,105.7 856.0,105.7" fill="none" stroke="#ff7a45" stroke-width="2.4" stroke-linejoin="round" stroke-linecap="round"/>
<circle cx="856.0" cy="105.7" r="4" fill="#ff7a45"/>
<rect x="56" y="401" width="14" height="4" rx="2" fill="#7c5cff"/>
<text x="78" y="410" font-family="-apple-system,Segoe UI,Helvetica,Arial,sans-serif" font-size="12" fill="#e6e7fa">Game.exe functions named in Ghidra — 40%</text>
<rect x="456" y="401" width="14" height="4" rx="2" fill="#2fb67c"/>
<text x="478" y="410" font-family="-apple-system,Segoe UI,Helvetica,Arial,sans-serif" font-size="12" fill="#e6e7fa">Original source files indexed — 100%</text>
<rect x="56" y="421" width="14" height="4" rx="2" fill="#2f9bff"/>
<text x="78" y="430" font-family="-apple-system,Segoe UI,Helvetica,Arial,sans-serif" font-size="12" fill="#e6e7fa">Source files studied in depth — 69%</text>
<rect x="456" y="421" width="14" height="4" rx="2" fill="#22c1c3"/>
<text x="478" y="430" font-family="-apple-system,Segoe UI,Helvetica,Arial,sans-serif" font-size="12" fill="#e6e7fa">Level generator proven equal to the real game — 99%</text>
<rect x="56" y="441" width="14" height="4" rx="2" fill="#f2a81d"/>
<text x="78" y="450" font-family="-apple-system,Segoe UI,Helvetica,Arial,sans-serif" font-size="12" fill="#e6e7fa">Real .d2s save: read and write verified — 90%</text>
<rect x="456" y="441" width="14" height="4" rx="2" fill="#ef5da8"/>
<text x="478" y="450" font-family="-apple-system,Segoe UI,Helvetica,Arial,sans-serif" font-size="12" fill="#e6e7fa">NPC interaction features — 100%</text>
<rect x="56" y="461" width="14" height="4" rx="2" fill="#ff7a45"/>
<text x="78" y="470" font-family="-apple-system,Segoe UI,Helvetica,Arial,sans-serif" font-size="12" fill="#e6e7fa">Roadmap deliverables — 86%</text>
</svg>