<svg xmlns="http://www.w3.org/2000/svg" width="880" height="520" viewBox="0 0 880 520" role="img" aria-label="Progress over time">
<rect width="880" height="520" rx="18" fill="#14162a"/>
<text x="56" y="36" font-family="-apple-system,Segoe UI,Helvetica,Arial,sans-serif" font-size="22" font-weight="700" fill="#fff">Progress over time</text>
<text x="856" y="36" text-anchor="end" font-family="-apple-system,Segoe UI,Helvetica,Arial,sans-serif" font-size="12" fill="#8c8eb0">snapshot every 10 min · latest 2026-10-09 17:45 UTC</text>
<line x1="56" y1="370.0" x2="856" y2="370.0" stroke="#fff" stroke-opacity="0.22"/>
<text x="48" y="374.0" text-anchor="end" font-family="-apple-system,Segoe UI,Helvetica,Arial,sans-serif" font-size="11" fill="#9fa1c4">0%</text>
<line x1="56" y1="308.8" x2="856" y2="308.8" stroke="#fff" stroke-opacity="0.08"/>
<text x="48" y="312.8" text-anchor="end" font-family="-apple-system,Segoe UI,Helvetica,Arial,sans-serif" font-size="11" fill="#9fa1c4">20%</text>
<line x1="56" y1="247.6" x2="856" y2="247.6" stroke="#fff" stroke-opacity="0.08"/>
<text x="48" y="251.6" text-anchor="end" font-family="-apple-system,Segoe UI,Helvetica,Arial,sans-serif" font-size="11" fill="#9fa1c4">40%</text>
<line x1="56" y1="186.4" x2="856" y2="186.4" stroke="#fff" stroke-opacity="0.08"/>
<text x="48" y="190.4" text-anchor="end" font-family="-apple-system,Segoe UI,Helvetica,Arial,sans-serif" font-size="11" fill="#9fa1c4">60%</text>
<line x1="56" y1="125.2" x2="856" y2="125.2" stroke="#fff" stroke-opacity="0.08"/>
<text x="48" y="129.2" text-anchor="end" font-family="-apple-system,Segoe UI,Helvetica,Arial,sans-serif" font-size="11" fill="#9fa1c4">80%</text>
<line x1="56" y1="64.0" x2="856" y2="64.0" stroke="#fff" stroke-opacity="0.22"/>
<text x="48" y="68.0" text-anchor="end" font-family="-apple-system,Segoe UI,Helvetica,Arial,sans-serif" font-size="11" fill="#9fa1c4">100%</text>
<line x1="56.0" y1="64" x2="56.0" y2="370" stroke="#fff" stroke-opacity="0.05"/>
<text x="56.0" y="386" text-anchor="middle" font-family="-apple-system,Segoe UI,Helvetica,Arial,sans-serif" font-size="11" fill="#9fa1c4">10-09 02:19</text>
<line x1="189.3" y1="64" x2="189.3" y2="370" stroke="#fff" stroke-opacity="0.05"/>
<text x="189.3" y="386" text-anchor="middle" font-family="-apple-system,Segoe UI,Helvetica,Arial,sans-serif" font-size="11" fill="#9fa1c4">10-09 03:43</text>
<line x1="322.7" y1="64" x2="322.7" y2="370" stroke="#fff" stroke-opacity="0.05"/>
<text x="322.7" y="386" text-anchor="middle" font-family="-apple-system,Segoe UI,Helvetica,Arial,sans-serif" font-size="11" fill="#9fa1c4">10-09 05:08</text>
<line x1="456.0" y1="64" x2="456.0" y2="370" stroke="#fff" stroke-opacity="0.05"/>
<text x="456.0" y="386" text-anchor="middle" font-family="-apple-system,Segoe UI,Helvetica,Arial,sans-serif" font-size="11" fill="#9fa1c4">10-09 06:32</text>
<line x1="589.3" y1="64" x2="589.3" y2="370" stroke="#fff" stroke-opacity="0.05"/>
<text x="589.3" y="386" text-anchor="middle" font-family="-apple-system,Segoe UI,Helvetica,Arial,sans-serif" font-size="11" fill="#9fa1c4">10-09 07:56</text>
<line x1="722.7" y1="64" x2="722.7" y2="370" stroke="#fff" stroke-opacity="0.05"/>
<text x="722.7" y="386" text-anchor="middle" font-family="-apple-system,Segoe UI,Helvetica,Arial,sans-serif" font-size="11" fill="#9fa1c4">10-09 09:20</text>
<line x1="856.0" y1="64" x2="856.0" y2="370" stroke="#fff" stroke-opacity="0.05"/>
<text x="856.0" y="386" text-anchor="middle" font-family="-apple-system,Segoe UI,Helvetica,Arial,sans-serif" font-size="11" fill="#9fa1c4">10-09 10:45</text>
<polyline points="56.0,346.2 60.7,343.1 65.9,343.1 70.7,334.4 94.4,327.0 133.4,315.4 137.0,315.4 144.3,309.0 167.8,304.8 198.5,304.8 242.3,302.2 264.8,302.2 273.5,302.2 331.2,302.2 357.4,302.2 374.3,302.2 411.5,299.9 585.3,299.9 661.1,248.8 664.0,248.8 664.3,248.8 665.1,248.8 681.0,248.8 696.8,248.8 712.7,248.8 728.6,248.8 744.5,248.8 760.4,248.8 776.3,248.8 792.2,248.8 808.1,248.8 824.0,248.8 840.0,248.8 856.0,248.8" fill="none" stroke="#7c5cff" stroke-width="2.4" stroke-linejoin="round" stroke-linecap="round"/>
<circle cx="856.0" cy="248.8" r="4" fill="#7c5cff"/>
<polyline points="56.0,64.0 60.7,64.0 65.9,64.0 70.7,64.0 94.4,64.0 133.4,64.0 137.0,64.0 144.3,64.0 167.8,64.0 198.5,64.0 242.3,64.0 264.8,64.0 273.5,64.0 331.2,64.0 357.4,64.0 374.3,64.0 411.5,64.0 585.3,64.0 661.1,64.0 664.0,64.0 664.3,64.0 665.1,64.0 681.0,64.0 696.8,64.0 712.7,64.0 728.6,64.0 744.5,64.0 760.4,64.0 776.3,64.0 792.2,64.0 808.1,64.0 824.0,64.0 840.0,64.0 856.0,64.0" fill="none" stroke="#2fb67c" stroke-width="2.4" stroke-linejoin="round" stroke-linecap="round"/>
<circle cx="856.0" cy="64.0" r="4" fill="#2fb67c"/>
<polyline points="56.0,320.3 60.7,303.7 65.9,287.1 70.7,265.0 94.4,231.9 133.4,193.3 137.0,193.3 144.3,176.7 167.8,160.1 198.5,138.0 242.3,138.0 264.8,138.0 273.5,138.0 331.2,138.0 357.4,138.0 374.3,138.0 411.5,160.1 585.3,160.1 661.1,160.1 664.0,160.1 664.3,160.1 665.1,160.1 681.0,160.1 696.8,160.1 712.7,160.1 728.6,160.1 744.5,160.1 760.4,160.1 776.3,160.1 792.2,160.1 808.1,160.1 824.0,160.1 840.0,160.1 856.0,160.1" fill="none" stroke="#2f9bff" stroke-width="2.4" stroke-linejoin="round" stroke-linecap="round"/>
<circle cx="856.0" cy="160.1" r="4" fill="#2f9bff"/>
<polyline points="198.5,69.8 242.3,76.2 264.8,72.2 273.5,72.2 331.2,67.2 357.4,67.2 374.3,67.2 411.5,66.6 585.3,66.1 661.1,66.1 664.0,66.1 664.3,66.1 665.1,66.1 681.0,66.1 696.8,66.1 712.7,66.1 728.6,66.1 744.5,66.1 760.4,66.1 776.3,66.1 792.2,66.1 808.1,66.1 824.0,66.1 840.0,66.1 856.0,66.1" fill="none" stroke="#22c1c3" stroke-width="2.4" stroke-linejoin="round" stroke-linecap="round"/>
<circle cx="856.0" cy="66.1" r="4" fill="#22c1c3"/>
<polyline points="70.7,94.6 94.4,94.6 133.4,94.6 137.0,94.6 144.3,94.6 167.8,94.6 198.5,94.6 242.3,94.6 264.8,94.6 273.5,94.6 331.2,94.6 357.4,94.6 374.3,94.6 411.5,94.6 585.3,94.6 661.1,94.6 664.0,94.6 664.3,94.6 665.1,94.6 681.0,94.6 696.8,94.6 712.7,94.6 728.6,94.6 744.5,94.6 760.4,94.6 776.3,94.6 792.2,94.6 808.1,94.6 824.0,94.6 840.0,94.6 856.0,94.6" fill="none" stroke="#f2a81d" stroke-width="2.4" stroke-linejoin="round" stroke-linecap="round"/>
<circle cx="856.0" cy="94.6" r="4" fill="#f2a81d"/>
<polyline points="56.0,238.8 60.7,238.8 65.9,238.8 70.7,238.8 94.4,195.2 133.4,151.4 137.0,151.4 144.3,151.4 167.8,151.4 198.5,107.7 242.3,102.2 264.8,102.2 273.5,102.2 331.2,102.2 357.4,64.0 374.3,64.0 411.5,64.0 585.3,64.0 661.1,64.0 664.0,64.0 664.3,64.0 665.1,64.0 681.0,64.0 696.8,64.0 712.7,64.0 728.6,64.0 744.5,64.0 760.4,64.0 776.3,64.0 792.2,64.0 808.1,64.0 824.0,64.0 840.0,64.0 856.0,64.0" fill="none" stroke="#ef5da8" stroke-width="2.4" stroke-linejoin="round" stroke-linecap="round"/>
<circle cx="856.0" cy="64.0" r="4" fill="#ef5da8"/>
<polyline points="56.0,268.0 60.7,242.5 65.9,242.5 70.7,205.2 94.4,134.6 133.4,125.2 137.0,104.8 144.3,104.8 167.8,104.8 198.5,133.6 242.3,127.7 264.8,111.1 273.5,99.3 331.2,103.5 357.4,93.6 374.3,83.7 411.5,96.2 585.3,105.7 661.1,105.7 664.0,105.7 664.3,105.7 665.1,105.7 681.0,105.7 696.8,105.7 712.7,105.7 728.6,105.7 744.5,105.7 760.4,105.7 776.3,105.7 792.2,105.7 808.1,105.7 824.0,105.7 840.0,105.7 856.0,105.7" fill="none" stroke="#ff7a45" stroke-width="2.4" stroke-linejoin="round" stroke-linecap="round"/>
<circle cx="856.0" cy="105.7" r="4" fill="#ff7a45"/>
<rect x="56" y="401" width="14" height="4" rx="2" fill="#7c5cff"/>
<text x="78" y="410" font-family="-apple-system,Segoe UI,Helvetica,Arial,sans-serif" font-size="12" fill="#e6e7fa">Game.exe functions named in Ghidra — 40%</text>
<rect x="456" y="401" width="14" height="4" rx="2" fill="#2fb67c"/>
<text x="478" y="410" font-family="-apple-system,Segoe UI,Helvetica,Arial,sans-serif" font-size="12" fill="#e6e7fa">Original source files indexed — 100%</text>
<rect x="56" y="421" width="14" height="4" rx="2" fill="#2f9bff"/>
<text x="78" y="430" font-family="-apple-system,Segoe UI,Helvetica,Arial,sans-serif" font-size="12" fill="#e6e7fa">Source files studied in depth — 69%</text>
<rect x="456" y="421" width="14" height="4" rx="2" fill="#22c1c3"/>
<text x="478" y="430" font-family="-apple-system,Segoe UI,Helvetica,Arial,sans-serif" font-size="12" fill="#e6e7fa">Level generator proven equal to the real game — 99%</text>
<rect x="56" y="441" width="14" height="4" rx="2" fill="#f2a81d"/>
<text x="78" y="450" font-family="-apple-system,Segoe UI,Helvetica,Arial,sans-serif" font-size="12" fill="#e6e7fa">Real .d2s save: read and write verified — 90%</text>
<rect x="456" y="441" width="14" height="4" rx="2" fill="#ef5da8"/>
<text x="478" y="450" font-family="-apple-system,Segoe UI,Helvetica,Arial,sans-serif" font-size="12" fill="#e6e7fa">NPC interaction features — 100%</text>
<rect x="56" y="461" width="14" height="4" rx="2" fill="#ff7a45"/>
<text x="78" y="470" font-family="-apple-system,Segoe UI,Helvetica,Arial,sans-serif" font-size="12" fill="#e6e7fa">Roadmap deliverables — 86%</text>
</svg>