<svg xmlns="http://www.w3.org/2000/svg" width="880" height="520" viewBox="0 0 880 520" role="img" aria-label="Progress over time">
<rect width="880" height="520" rx="18" fill="#14162a"/>
<text x="56" y="36" font-family="-apple-system,Segoe UI,Helvetica,Arial,sans-serif" font-size="22" font-weight="700" fill="#fff">Progress over time</text>
<text x="856" y="36" text-anchor="end" font-family="-apple-system,Segoe UI,Helvetica,Arial,sans-serif" font-size="12" fill="#8c8eb0">snapshot every 10 min · latest 2026-10-09 18:05 UTC</text>
<line x1="56" y1="370.0" x2="856" y2="370.0" stroke="#fff" stroke-opacity="0.22"/>
<text x="48" y="374.0" text-anchor="end" font-family="-apple-system,Segoe UI,Helvetica,Arial,sans-serif" font-size="11" fill="#9fa1c4">0%</text>
<line x1="56" y1="308.8" x2="856" y2="308.8" stroke="#fff" stroke-opacity="0.08"/>
<text x="48" y="312.8" text-anchor="end" font-family="-apple-system,Segoe UI,Helvetica,Arial,sans-serif" font-size="11" fill="#9fa1c4">20%</text>
<line x1="56" y1="247.6" x2="856" y2="247.6" stroke="#fff" stroke-opacity="0.08"/>
<text x="48" y="251.6" text-anchor="end" font-family="-apple-system,Segoe UI,Helvetica,Arial,sans-serif" font-size="11" fill="#9fa1c4">40%</text>
<line x1="56" y1="186.4" x2="856" y2="186.4" stroke="#fff" stroke-opacity="0.08"/>
<text x="48" y="190.4" text-anchor="end" font-family="-apple-system,Segoe UI,Helvetica,Arial,sans-serif" font-size="11" fill="#9fa1c4">60%</text>
<line x1="56" y1="125.2" x2="856" y2="125.2" stroke="#fff" stroke-opacity="0.08"/>
<text x="48" y="129.2" text-anchor="end" font-family="-apple-system,Segoe UI,Helvetica,Arial,sans-serif" font-size="11" fill="#9fa1c4">80%</text>
<line x1="56" y1="64.0" x2="856" y2="64.0" stroke="#fff" stroke-opacity="0.22"/>
<text x="48" y="68.0" text-anchor="end" font-family="-apple-system,Segoe UI,Helvetica,Arial,sans-serif" font-size="11" fill="#9fa1c4">100%</text>
<line x1="56.0" y1="64" x2="56.0" y2="370" stroke="#fff" stroke-opacity="0.05"/>
<text x="56.0" y="386" text-anchor="middle" font-family="-apple-system,Segoe UI,Helvetica,Arial,sans-serif" font-size="11" fill="#9fa1c4">10-09 02:19</text>
<line x1="189.3" y1="64" x2="189.3" y2="370" stroke="#fff" stroke-opacity="0.05"/>
<text x="189.3" y="386" text-anchor="middle" font-family="-apple-system,Segoe UI,Helvetica,Arial,sans-serif" font-size="11" fill="#9fa1c4">10-09 03:47</text>
<line x1="322.7" y1="64" x2="322.7" y2="370" stroke="#fff" stroke-opacity="0.05"/>
<text x="322.7" y="386" text-anchor="middle" font-family="-apple-system,Segoe UI,Helvetica,Arial,sans-serif" font-size="11" fill="#9fa1c4">10-09 05:14</text>
<line x1="456.0" y1="64" x2="456.0" y2="370" stroke="#fff" stroke-opacity="0.05"/>
<text x="456.0" y="386" text-anchor="middle" font-family="-apple-system,Segoe UI,Helvetica,Arial,sans-serif" font-size="11" fill="#9fa1c4">10-09 06:42</text>
<line x1="589.3" y1="64" x2="589.3" y2="370" stroke="#fff" stroke-opacity="0.05"/>
<text x="589.3" y="386" text-anchor="middle" font-family="-apple-system,Segoe UI,Helvetica,Arial,sans-serif" font-size="11" fill="#9fa1c4">10-09 08:09</text>
<line x1="722.7" y1="64" x2="722.7" y2="370" stroke="#fff" stroke-opacity="0.05"/>
<text x="722.7" y="386" text-anchor="middle" font-family="-apple-system,Segoe UI,Helvetica,Arial,sans-serif" font-size="11" fill="#9fa1c4">10-09 09:37</text>
<line x1="856.0" y1="64" x2="856.0" y2="370" stroke="#fff" stroke-opacity="0.05"/>
<text x="856.0" y="386" text-anchor="middle" font-family="-apple-system,Segoe UI,Helvetica,Arial,sans-serif" font-size="11" fill="#9fa1c4">10-09 11:05</text>
<polyline points="56.0,346.2 60.6,343.1 65.5,343.1 70.2,334.4 93.0,327.0 130.4,315.4 134.0,315.4 140.9,309.0 163.5,304.8 193.0,304.8 235.2,302.2 256.8,302.2 265.1,302.2 320.7,302.2 345.9,302.2 362.1,302.2 397.9,299.9 565.0,299.9 638.0,248.8 640.8,248.8 641.1,248.8 641.8,248.8 657.1,248.8 672.3,248.8 687.6,248.8 702.9,248.8 718.2,248.8 733.5,248.8 748.7,248.8 764.0,248.8 779.3,248.8 794.6,248.8 810.0,248.8 825.4,248.8 840.7,248.8 856.0,248.8" fill="none" stroke="#7c5cff" stroke-width="2.4" stroke-linejoin="round" stroke-linecap="round"/>
<circle cx="856.0" cy="248.8" r="4" fill="#7c5cff"/>
<polyline points="56.0,64.0 60.6,64.0 65.5,64.0 70.2,64.0 93.0,64.0 130.4,64.0 134.0,64.0 140.9,64.0 163.5,64.0 193.0,64.0 235.2,64.0 256.8,64.0 265.1,64.0 320.7,64.0 345.9,64.0 362.1,64.0 397.9,64.0 565.0,64.0 638.0,64.0 640.8,64.0 641.1,64.0 641.8,64.0 657.1,64.0 672.3,64.0 687.6,64.0 702.9,64.0 718.2,64.0 733.5,64.0 748.7,64.0 764.0,64.0 779.3,64.0 794.6,64.0 810.0,64.0 825.4,64.0 840.7,64.0 856.0,64.0" fill="none" stroke="#2fb67c" stroke-width="2.4" stroke-linejoin="round" stroke-linecap="round"/>
<circle cx="856.0" cy="64.0" r="4" fill="#2fb67c"/>
<polyline points="56.0,320.3 60.6,303.7 65.5,287.1 70.2,265.0 93.0,231.9 130.4,193.3 134.0,193.3 140.9,176.7 163.5,160.1 193.0,138.0 235.2,138.0 256.8,138.0 265.1,138.0 320.7,138.0 345.9,138.0 362.1,138.0 397.9,160.1 565.0,160.1 638.0,160.1 640.8,160.1 641.1,160.1 641.8,160.1 657.1,160.1 672.3,160.1 687.6,160.1 702.9,160.1 718.2,160.1 733.5,160.1 748.7,160.1 764.0,160.1 779.3,160.1 794.6,160.1 810.0,160.1 825.4,160.1 840.7,160.1 856.0,160.1" fill="none" stroke="#2f9bff" stroke-width="2.4" stroke-linejoin="round" stroke-linecap="round"/>
<circle cx="856.0" cy="160.1" r="4" fill="#2f9bff"/>
<polyline points="193.0,69.8 235.2,76.2 256.8,72.2 265.1,72.2 320.7,67.2 345.9,67.2 362.1,67.2 397.9,66.6 565.0,66.1 638.0,66.1 640.8,66.1 641.1,66.1 641.8,66.1 657.1,66.1 672.3,66.1 687.6,66.1 702.9,66.1 718.2,66.1 733.5,66.1 748.7,66.1 764.0,66.1 779.3,66.1 794.6,66.1 810.0,66.1 825.4,66.1 840.7,66.1 856.0,66.1" fill="none" stroke="#22c1c3" stroke-width="2.4" stroke-linejoin="round" stroke-linecap="round"/>
<circle cx="856.0" cy="66.1" r="4" fill="#22c1c3"/>
<polyline points="70.2,94.6 93.0,94.6 130.4,94.6 134.0,94.6 140.9,94.6 163.5,94.6 193.0,94.6 235.2,94.6 256.8,94.6 265.1,94.6 320.7,94.6 345.9,94.6 362.1,94.6 397.9,94.6 565.0,94.6 638.0,94.6 640.8,94.6 641.1,94.6 641.8,94.6 657.1,94.6 672.3,94.6 687.6,94.6 702.9,94.6 718.2,94.6 733.5,94.6 748.7,94.6 764.0,94.6 779.3,94.6 794.6,94.6 810.0,94.6 825.4,94.6 840.7,94.6 856.0,94.6" fill="none" stroke="#f2a81d" stroke-width="2.4" stroke-linejoin="round" stroke-linecap="round"/>
<circle cx="856.0" cy="94.6" r="4" fill="#f2a81d"/>
<polyline points="56.0,238.8 60.6,238.8 65.5,238.8 70.2,238.8 93.0,195.2 130.4,151.4 134.0,151.4 140.9,151.4 163.5,151.4 193.0,107.7 235.2,102.2 256.8,102.2 265.1,102.2 320.7,102.2 345.9,64.0 362.1,64.0 397.9,64.0 565.0,64.0 638.0,64.0 640.8,64.0 641.1,64.0 641.8,64.0 657.1,64.0 672.3,64.0 687.6,64.0 702.9,64.0 718.2,64.0 733.5,64.0 748.7,64.0 764.0,64.0 779.3,64.0 794.6,64.0 810.0,64.0 825.4,64.0 840.7,64.0 856.0,64.0" fill="none" stroke="#ef5da8" stroke-width="2.4" stroke-linejoin="round" stroke-linecap="round"/>
<circle cx="856.0" cy="64.0" r="4" fill="#ef5da8"/>
<polyline points="56.0,268.0 60.6,242.5 65.5,242.5 70.2,205.2 93.0,134.6 130.4,125.2 134.0,104.8 140.9,104.8 163.5,104.8 193.0,133.6 235.2,127.7 256.8,111.1 265.1,99.3 320.7,103.5 345.9,93.6 362.1,83.7 397.9,96.2 565.0,105.7 638.0,105.7 640.8,105.7 641.1,105.7 641.8,105.7 657.1,105.7 672.3,105.7 687.6,105.7 702.9,105.7 718.2,105.7 733.5,105.7 748.7,105.7 764.0,105.7 779.3,105.7 794.6,105.7 810.0,105.7 825.4,105.7 840.7,105.7 856.0,105.7" fill="none" stroke="#ff7a45" stroke-width="2.4" stroke-linejoin="round" stroke-linecap="round"/>
<circle cx="856.0" cy="105.7" r="4" fill="#ff7a45"/>
<rect x="56" y="401" width="14" height="4" rx="2" fill="#7c5cff"/>
<text x="78" y="410" font-family="-apple-system,Segoe UI,Helvetica,Arial,sans-serif" font-size="12" fill="#e6e7fa">Game.exe functions named in Ghidra — 40%</text>
<rect x="456" y="401" width="14" height="4" rx="2" fill="#2fb67c"/>
<text x="478" y="410" font-family="-apple-system,Segoe UI,Helvetica,Arial,sans-serif" font-size="12" fill="#e6e7fa">Original source files indexed — 100%</text>
<rect x="56" y="421" width="14" height="4" rx="2" fill="#2f9bff"/>
<text x="78" y="430" font-family="-apple-system,Segoe UI,Helvetica,Arial,sans-serif" font-size="12" fill="#e6e7fa">Source files studied in depth — 69%</text>
<rect x="456" y="421" width="14" height="4" rx="2" fill="#22c1c3"/>
<text x="478" y="430" font-family="-apple-system,Segoe UI,Helvetica,Arial,sans-serif" font-size="12" fill="#e6e7fa">Level generator proven equal to the real game — 99%</text>
<rect x="56" y="441" width="14" height="4" rx="2" fill="#f2a81d"/>
<text x="78" y="450" font-family="-apple-system,Segoe UI,Helvetica,Arial,sans-serif" font-size="12" fill="#e6e7fa">Real .d2s save: read and write verified — 90%</text>
<rect x="456" y="441" width="14" height="4" rx="2" fill="#ef5da8"/>
<text x="478" y="450" font-family="-apple-system,Segoe UI,Helvetica,Arial,sans-serif" font-size="12" fill="#e6e7fa">NPC interaction features — 100%</text>
<rect x="56" y="461" width="14" height="4" rx="2" fill="#ff7a45"/>
<text x="78" y="470" font-family="-apple-system,Segoe UI,Helvetica,Arial,sans-serif" font-size="12" fill="#e6e7fa">Roadmap deliverables — 86%</text>
</svg>