<svg xmlns="http://www.w3.org/2000/svg" width="880" height="520" viewBox="0 0 880 520" role="img" aria-label="Progress over time">
<rect width="880" height="520" rx="18" fill="#14162a"/>
<text x="56" y="36" font-family="-apple-system,Segoe UI,Helvetica,Arial,sans-serif" font-size="22" font-weight="700" fill="#fff">Progress over time</text>
<text x="856" y="36" text-anchor="end" font-family="-apple-system,Segoe UI,Helvetica,Arial,sans-serif" font-size="12" fill="#8c8eb0">snapshot every 10 min · latest 2026-10-09 16:04 UTC</text>
<line x1="56" y1="370.0" x2="856" y2="370.0" stroke="#fff" stroke-opacity="0.22"/>
<text x="48" y="374.0" text-anchor="end" font-family="-apple-system,Segoe UI,Helvetica,Arial,sans-serif" font-size="11" fill="#9fa1c4">0%</text>
<line x1="56" y1="308.8" x2="856" y2="308.8" stroke="#fff" stroke-opacity="0.08"/>
<text x="48" y="312.8" text-anchor="end" font-family="-apple-system,Segoe UI,Helvetica,Arial,sans-serif" font-size="11" fill="#9fa1c4">20%</text>
<line x1="56" y1="247.6" x2="856" y2="247.6" stroke="#fff" stroke-opacity="0.08"/>
<text x="48" y="251.6" text-anchor="end" font-family="-apple-system,Segoe UI,Helvetica,Arial,sans-serif" font-size="11" fill="#9fa1c4">40%</text>
<line x1="56" y1="186.4" x2="856" y2="186.4" stroke="#fff" stroke-opacity="0.08"/>
<text x="48" y="190.4" text-anchor="end" font-family="-apple-system,Segoe UI,Helvetica,Arial,sans-serif" font-size="11" fill="#9fa1c4">60%</text>
<line x1="56" y1="125.2" x2="856" y2="125.2" stroke="#fff" stroke-opacity="0.08"/>
<text x="48" y="129.2" text-anchor="end" font-family="-apple-system,Segoe UI,Helvetica,Arial,sans-serif" font-size="11" fill="#9fa1c4">80%</text>
<line x1="56" y1="64.0" x2="856" y2="64.0" stroke="#fff" stroke-opacity="0.22"/>
<text x="48" y="68.0" text-anchor="end" font-family="-apple-system,Segoe UI,Helvetica,Arial,sans-serif" font-size="11" fill="#9fa1c4">100%</text>
<line x1="56.0" y1="64" x2="56.0" y2="370" stroke="#fff" stroke-opacity="0.05"/>
<text x="56.0" y="386" text-anchor="middle" font-family="-apple-system,Segoe UI,Helvetica,Arial,sans-serif" font-size="11" fill="#9fa1c4">10-09 02:19</text>
<line x1="189.3" y1="64" x2="189.3" y2="370" stroke="#fff" stroke-opacity="0.05"/>
<text x="189.3" y="386" text-anchor="middle" font-family="-apple-system,Segoe UI,Helvetica,Arial,sans-serif" font-size="11" fill="#9fa1c4">10-09 03:26</text>
<line x1="322.7" y1="64" x2="322.7" y2="370" stroke="#fff" stroke-opacity="0.05"/>
<text x="322.7" y="386" text-anchor="middle" font-family="-apple-system,Segoe UI,Helvetica,Arial,sans-serif" font-size="11" fill="#9fa1c4">10-09 04:34</text>
<line x1="456.0" y1="64" x2="456.0" y2="370" stroke="#fff" stroke-opacity="0.05"/>
<text x="456.0" y="386" text-anchor="middle" font-family="-apple-system,Segoe UI,Helvetica,Arial,sans-serif" font-size="11" fill="#9fa1c4">10-09 05:41</text>
<line x1="589.3" y1="64" x2="589.3" y2="370" stroke="#fff" stroke-opacity="0.05"/>
<text x="589.3" y="386" text-anchor="middle" font-family="-apple-system,Segoe UI,Helvetica,Arial,sans-serif" font-size="11" fill="#9fa1c4">10-09 06:49</text>
<line x1="722.7" y1="64" x2="722.7" y2="370" stroke="#fff" stroke-opacity="0.05"/>
<text x="722.7" y="386" text-anchor="middle" font-family="-apple-system,Segoe UI,Helvetica,Arial,sans-serif" font-size="11" fill="#9fa1c4">10-09 07:56</text>
<line x1="856.0" y1="64" x2="856.0" y2="370" stroke="#fff" stroke-opacity="0.05"/>
<text x="856.0" y="386" text-anchor="middle" font-family="-apple-system,Segoe UI,Helvetica,Arial,sans-serif" font-size="11" fill="#9fa1c4">10-09 09:04</text>
<polyline points="56.0,346.2 61.9,343.1 68.4,343.1 74.4,334.4 104.0,327.0 152.6,315.4 157.2,315.4 166.2,309.0 195.6,304.8 233.8,304.8 288.6,302.2 316.7,302.2 327.5,302.2 399.6,302.2 432.3,302.2 453.3,302.2 499.8,299.9 716.8,299.9 811.5,248.8 815.0,248.8 815.4,248.8 816.4,248.8 836.2,248.8 856.0,248.8" fill="none" stroke="#7c5cff" stroke-width="2.4" stroke-linejoin="round" stroke-linecap="round"/>
<circle cx="856.0" cy="248.8" r="4" fill="#7c5cff"/>
<polyline points="56.0,64.0 61.9,64.0 68.4,64.0 74.4,64.0 104.0,64.0 152.6,64.0 157.2,64.0 166.2,64.0 195.6,64.0 233.8,64.0 288.6,64.0 316.7,64.0 327.5,64.0 399.6,64.0 432.3,64.0 453.3,64.0 499.8,64.0 716.8,64.0 811.5,64.0 815.0,64.0 815.4,64.0 816.4,64.0 836.2,64.0 856.0,64.0" fill="none" stroke="#2fb67c" stroke-width="2.4" stroke-linejoin="round" stroke-linecap="round"/>
<circle cx="856.0" cy="64.0" r="4" fill="#2fb67c"/>
<polyline points="56.0,320.3 61.9,303.7 68.4,287.1 74.4,265.0 104.0,231.9 152.6,193.3 157.2,193.3 166.2,176.7 195.6,160.1 233.8,138.0 288.6,138.0 316.7,138.0 327.5,138.0 399.6,138.0 432.3,138.0 453.3,138.0 499.8,160.1 716.8,160.1 811.5,160.1 815.0,160.1 815.4,160.1 816.4,160.1 836.2,160.1 856.0,160.1" fill="none" stroke="#2f9bff" stroke-width="2.4" stroke-linejoin="round" stroke-linecap="round"/>
<circle cx="856.0" cy="160.1" r="4" fill="#2f9bff"/>
<polyline points="233.8,69.8 288.6,76.2 316.7,72.2 327.5,72.2 399.6,67.2 432.3,67.2 453.3,67.2 499.8,66.6 716.8,66.1 811.5,66.1 815.0,66.1 815.4,66.1 816.4,66.1 836.2,66.1 856.0,66.1" fill="none" stroke="#22c1c3" stroke-width="2.4" stroke-linejoin="round" stroke-linecap="round"/>
<circle cx="856.0" cy="66.1" r="4" fill="#22c1c3"/>
<polyline points="74.4,94.6 104.0,94.6 152.6,94.6 157.2,94.6 166.2,94.6 195.6,94.6 233.8,94.6 288.6,94.6 316.7,94.6 327.5,94.6 399.6,94.6 432.3,94.6 453.3,94.6 499.8,94.6 716.8,94.6 811.5,94.6 815.0,94.6 815.4,94.6 816.4,94.6 836.2,94.6 856.0,94.6" fill="none" stroke="#f2a81d" stroke-width="2.4" stroke-linejoin="round" stroke-linecap="round"/>
<circle cx="856.0" cy="94.6" r="4" fill="#f2a81d"/>
<polyline points="56.0,238.8 61.9,238.8 68.4,238.8 74.4,238.8 104.0,195.2 152.6,151.4 157.2,151.4 166.2,151.4 195.6,151.4 233.8,107.7 288.6,102.2 316.7,102.2 327.5,102.2 399.6,102.2 432.3,64.0 453.3,64.0 499.8,64.0 716.8,64.0 811.5,64.0 815.0,64.0 815.4,64.0 816.4,64.0 836.2,64.0 856.0,64.0" fill="none" stroke="#ef5da8" stroke-width="2.4" stroke-linejoin="round" stroke-linecap="round"/>
<circle cx="856.0" cy="64.0" r="4" fill="#ef5da8"/>
<polyline points="56.0,268.0 61.9,242.5 68.4,242.5 74.4,205.2 104.0,134.6 152.6,125.2 157.2,104.8 166.2,104.8 195.6,104.8 233.8,133.6 288.6,127.7 316.7,111.1 327.5,99.3 399.6,103.5 432.3,93.6 453.3,83.7 499.8,96.2 716.8,105.7 811.5,105.7 815.0,105.7 815.4,105.7 816.4,105.7 836.2,105.7 856.0,105.7" fill="none" stroke="#ff7a45" stroke-width="2.4" stroke-linejoin="round" stroke-linecap="round"/>
<circle cx="856.0" cy="105.7" r="4" fill="#ff7a45"/>
<rect x="56" y="401" width="14" height="4" rx="2" fill="#7c5cff"/>
<text x="78" y="410" font-family="-apple-system,Segoe UI,Helvetica,Arial,sans-serif" font-size="12" fill="#e6e7fa">Game.exe functions named in Ghidra — 40%</text>
<rect x="456" y="401" width="14" height="4" rx="2" fill="#2fb67c"/>
<text x="478" y="410" font-family="-apple-system,Segoe UI,Helvetica,Arial,sans-serif" font-size="12" fill="#e6e7fa">Original source files indexed — 100%</text>
<rect x="56" y="421" width="14" height="4" rx="2" fill="#2f9bff"/>
<text x="78" y="430" font-family="-apple-system,Segoe UI,Helvetica,Arial,sans-serif" font-size="12" fill="#e6e7fa">Source files studied in depth — 69%</text>
<rect x="456" y="421" width="14" height="4" rx="2" fill="#22c1c3"/>
<text x="478" y="430" font-family="-apple-system,Segoe UI,Helvetica,Arial,sans-serif" font-size="12" fill="#e6e7fa">Level generator proven equal to the real game — 99%</text>
<rect x="56" y="441" width="14" height="4" rx="2" fill="#f2a81d"/>
<text x="78" y="450" font-family="-apple-system,Segoe UI,Helvetica,Arial,sans-serif" font-size="12" fill="#e6e7fa">Real .d2s save: read and write verified — 90%</text>
<rect x="456" y="441" width="14" height="4" rx="2" fill="#ef5da8"/>
<text x="478" y="450" font-family="-apple-system,Segoe UI,Helvetica,Arial,sans-serif" font-size="12" fill="#e6e7fa">NPC interaction features — 100%</text>
<rect x="56" y="461" width="14" height="4" rx="2" fill="#ff7a45"/>
<text x="78" y="470" font-family="-apple-system,Segoe UI,Helvetica,Arial,sans-serif" font-size="12" fill="#e6e7fa">Roadmap deliverables — 86%</text>
</svg>